<?xml version="1.0" encoding="utf-8"?>
<!-- Generator: Adobe Illustrator 16.0.3, SVG Export Plug-In . SVG Version: 6.00 Build 0)  -->
<!DOCTYPE svg PUBLIC "-//W3C//DTD SVG 1.1//EN" "http://www.w3.org/Graphics/SVG/1.1/DTD/svg11.dtd">
<svg version="1.1" id="Layer_1" xmlns="http://www.w3.org/2000/svg" xmlns:xlink="http://www.w3.org/1999/xlink" x="0px" y="0px"
	 width="268.048px" height="43.277px" viewBox="0 0 268.048 43.277" enable-background="new 0 0 268.048 43.277"
	 xml:space="preserve">
<g id="he-arc">
	<path fill="#F7F7F7" d="M0.056,13.244V0.672h2.159v4.492c0.661-0.559,1.55-1.148,2.612-1.148c1.811,0,2.682,1.186,2.682,3.029
		v6.199h-2.16V7.359c0-1.219-0.383-1.602-1.114-1.602c-0.94,0-1.654,0.539-2.02,0.957v6.529H0.056L0.056,13.244z"/>
	<path fill="#F7F7F7" d="M14.125,8.908c-1.445,0.279-3.03,0.574-3.03,1.846c0,0.68,0.436,1.063,1.045,1.063
		c0.679,0,1.533-0.574,1.985-0.957V8.908L14.125,8.908z M14.352,13.244l-0.139-0.783c-0.871,0.594-1.689,0.957-2.821,0.957
		c-1.637,0-2.456-1.166-2.456-2.402c0-2.055,1.671-3.135,5.189-3.551V6.697c0-0.697-0.557-1.08-1.323-1.08
		c-1.01,0-1.568,0.539-1.986,1.115L9.424,5.67c0.558-0.957,2.054-1.689,3.378-1.654c2.438,0.053,3.483,0.939,3.483,3.656v4.268
		c0,0.453,0.035,0.904,0.173,1.305H14.352L14.352,13.244z"/>
	<path fill="#F7F7F7" d="M25.897,4.189v9.055h-1.985V12.27c-0.801,0.559-1.724,1.148-2.787,1.148c-1.811,0-2.681-1.184-2.681-3.029
		V4.189h2.16v5.885c0,1.221,0.382,1.604,1.113,1.604c0.94,0,1.655-0.541,2.021-0.957V4.189H25.897L25.897,4.189z"/>
	<path fill="#F7F7F7" d="M28.474,4.189V1.195h2.159v2.994h1.776v1.742h-1.776v5.119c0,0.486,0.244,0.627,0.784,0.627
		c0.331,0,0.679-0.104,0.993-0.174v1.775c-0.593,0.068-1.115,0.139-1.707,0.139c-1.602,0-2.229-0.801-2.229-2.088V5.932h-1.253
		V4.189H28.474L28.474,4.189z"/>
	<path fill="#F7F7F7" d="M38.87,7.602c-0.035-1.252-0.696-1.984-1.742-1.984c-1.044,0-1.706,0.732-1.741,1.984H38.87L38.87,7.602z
		 M35.387,9.066c0.035,1.881,0.871,2.611,1.881,2.611c1.01,0,1.48-0.453,2.02-1.08l1.567,0.977
		c-0.836,1.287-2.055,1.844-3.796,1.844c-2.351,0-3.831-1.828-3.831-4.701s1.48-4.701,3.936-4.701
		C39.532,3.998,40.855,6,40.855,8.178v0.889H35.387L35.387,9.066z"/>
	<path fill="#F7F7F7" d="M54.088,0.498l-2.542,2.543H49.77l1.637-2.543H54.088L54.088,0.498z M52.887,7.602
		c-0.035-1.252-0.696-1.984-1.741-1.984S49.44,6.35,49.405,7.602H52.887L52.887,7.602z M49.405,9.066
		c0.035,1.881,0.87,2.611,1.88,2.611c1.01,0,1.48-0.453,2.02-1.08l1.568,0.977c-0.836,1.287-2.055,1.844-3.796,1.844
		c-2.351,0-3.831-1.828-3.831-4.701s1.48-4.701,3.935-4.701C53.549,3.998,54.873,6,54.873,8.178v0.889H49.405L49.405,9.066z"/>
	<path fill="#F7F7F7" d="M61.664,7.133c-0.349-0.768-0.732-1.375-1.776-1.375c-1.202,0-1.776,0.939-1.776,2.959
		s0.574,2.961,1.846,2.961c0.94,0,1.48-0.645,1.916-1.443l1.637,0.92c-0.871,1.621-1.968,2.283-3.622,2.264
		c-2.455,0-3.936-1.828-3.936-4.701s1.48-4.701,3.936-4.701c1.706,0,3.064,0.906,3.569,2.42L61.664,7.133L61.664,7.133z"/>
	<path fill="#F7F7F7" d="M68.594,5.758c-1.201,0-1.776,0.939-1.776,2.959s0.575,2.961,1.776,2.961c1.202,0,1.777-0.941,1.777-2.961
		S69.795,5.758,68.594,5.758L68.594,5.758z M68.594,4.016c2.456,0,3.936,1.828,3.936,4.701s-1.48,4.701-3.936,4.701
		c-2.455,0-3.935-1.828-3.935-4.701S66.139,4.016,68.594,4.016L68.594,4.016z"/>
	<polygon fill="#F7F7F7" points="74.288,13.244 74.288,0.672 76.447,0.672 76.447,13.244 74.288,13.244 	"/>
	<path fill="#F7F7F7" d="M83.848,7.602c-0.035-1.252-0.697-1.984-1.742-1.984c-1.044,0-1.706,0.732-1.741,1.984H83.848L83.848,7.602
		z M80.365,9.066c0.035,1.881,0.871,2.611,1.881,2.611c1.01,0,1.48-0.453,2.021-1.08l1.567,0.977
		c-0.835,1.287-2.055,1.844-3.795,1.844c-2.353,0-3.833-1.828-3.833-4.701s1.48-4.701,3.937-4.701
		C84.51,3.998,85.833,6,85.833,8.178v0.889H80.365L80.365,9.066z"/>
	<path fill="#F7F7F7" d="M120.225,13.25c0-7.307-5.943-13.25-13.249-13.25C99.67,0,93.727,5.943,93.727,13.25h7.921
		c0-2.938,2.39-5.328,5.328-5.328c2.926,0,5.307,2.402,5.326,5.324L120.225,13.25L120.225,13.25z"/>
	<path fill="#F7F7F7" d="M150.845,13.25c0-7.307-5.943-13.25-13.25-13.25c-7.305,0-13.249,5.943-13.249,13.25h7.921
		c0-2.938,2.39-5.328,5.327-5.328c2.928,0,5.308,2.402,5.326,5.324L150.845,13.25L150.845,13.25z"/>
	<path fill="#F7F7F7" d="M179.349,13.25C179.349,5.943,173.407,0,166.1,0c-7.305,0-13.248,5.943-13.248,13.25h7.921
		c0-2.938,2.391-5.328,5.327-5.328c2.929,0,5.307,2.402,5.327,5.324L179.349,13.25L179.349,13.25z"/>
	<path fill="#F7F7F7" d="M106.976,43.168c7.049,0,13.234-5.084,13.234-13.357c0,0,0-9.648-0.002-14.309h-7.923v2.418
		c-1.626-0.713-3.421-1.113-5.309-1.113c-7.26,0-13.248,5.857-13.248,13.182C93.728,37.309,99.716,43.168,106.976,43.168
		L106.976,43.168z M106.933,36.178c-3.417,0-6.186-2.768-6.186-6.188c0-3.416,2.77-6.186,6.186-6.186
		c3.417,0,6.187,2.77,6.187,6.186C113.12,33.41,110.351,36.178,106.933,36.178L106.933,36.178z"/>
	<polygon fill="#F7F7F7" points="124.348,15.502 132.27,15.502 132.27,42.336 124.348,42.336 124.348,15.502 124.348,15.502 	"/>
	<path fill="#F7F7F7" d="M152.864,15.502l0.014,14.316c0,8.24,5.639,13.459,13.237,13.459c7.305,0,13.249-5.943,13.249-13.248
		h-7.922c0,2.938-2.391,5.326-5.327,5.326s-5.325-2.389-5.325-5.326V15.502H152.864L152.864,15.502z"/>
	<path fill="#F7F7F7" d="M0,24.258v-5.084h0.586v0.803c0.548-0.568,0.997-0.9,1.74-0.9c1.056,0,1.505,0.605,1.505,1.711v3.471H3.246
		v-3.412c0-0.84-0.254-1.301-1.037-1.301c-0.625,0-0.977,0.383-1.623,0.967v3.746H0L0,24.258z"/>
	<path fill="#F7F7F7" d="M8.524,21.266c-0.117-1.045-0.577-1.711-1.466-1.721c-1.036-0.01-1.477,1.047-1.486,1.721H8.524
		L8.524,21.266z M5.572,21.734c0,1.154,0.479,2.15,1.632,2.15c0.655,0,0.978-0.225,1.486-1.025l0.479,0.254
		c-0.547,0.9-1.047,1.242-2.014,1.242c-1.33,0-2.171-0.852-2.171-2.641c0-1.574,0.802-2.639,2.092-2.639
		c1.378,0,2.034,1.086,2.034,2.658H5.572L5.572,21.734z"/>
	<path fill="#F7F7F7" d="M14.155,19.174v5.084h-0.586v-0.803c-0.547,0.566-0.998,0.9-1.74,0.9c-1.056,0-1.505-0.605-1.505-1.711
		v-3.471h0.586v3.412c0,0.84,0.254,1.299,1.036,1.299c0.625,0,0.978-0.381,1.623-0.967v-3.744H14.155L14.155,19.174z"/>
	<path fill="#F7F7F7" d="M18.819,20.602c-0.264-0.588-0.645-1.057-1.32-1.057c-0.957,0-1.604,0.596-1.604,2.17
		c0,1.301,0.587,2.17,1.604,2.17c0.724,0,1.115-0.398,1.525-1.055l0.47,0.225c-0.431,0.723-1.028,1.301-1.996,1.301
		c-1.427,0-2.19-1.105-2.19-2.641c0-1.748,0.88-2.639,2.19-2.639c0.958,0,1.555,0.539,1.857,1.377L18.819,20.602L18.819,20.602z"/>
	<path fill="#F7F7F7" d="M20.646,24.258v-7.059h0.587v2.777c0.547-0.568,0.997-0.9,1.741-0.9c1.056,0,1.505,0.605,1.505,1.711v3.471
		h-0.587v-3.412c0-0.84-0.254-1.301-1.036-1.301c-0.626,0-0.978,0.383-1.624,0.967v3.746H20.646L20.646,24.258z"/>
	<path fill="#F7F7F7" d="M29.171,18.607h-0.646l-0.802-0.986l-0.801,0.986h-0.646l1.114-1.35h0.666L29.171,18.607L29.171,18.607z
		 M28.761,21.383c-2.327,0.51-2.64,0.988-2.64,1.633c0,0.559,0.381,0.869,0.909,0.869c0.548,0,1.222-0.32,1.731-0.84V21.383
		L28.761,21.383z M28.858,24.258l-0.079-0.615c-0.606,0.477-1.065,0.713-1.848,0.713c-0.792,0-1.397-0.49-1.397-1.33
		c0-1.387,1.134-1.643,3.255-2.113v-0.35c0-0.676-0.292-1.018-1.163-1.018c-0.606,0-1.104,0.334-1.476,0.92l-0.392-0.234
		c0.44-0.822,1.066-1.154,1.887-1.154c1.154,0,1.701,0.469,1.701,1.594v2.658c0,0.256,0.021,0.588,0.078,0.93H28.858L28.858,24.258z
		"/>
	<path fill="#F7F7F7" d="M31.028,19.174v-1.662h0.587v1.662h1.114v0.469h-1.114v3.725c0,0.342,0.156,0.518,0.518,0.518
		c0.196,0,0.411-0.047,0.596-0.107v0.49c-0.195,0.027-0.4,0.088-0.596,0.088c-0.831,0-1.104-0.273-1.104-0.891v-3.822h-0.762v-0.469
		H31.028L31.028,19.174z"/>
	<path fill="#F7F7F7" d="M36.776,21.266c-0.117-1.045-0.576-1.711-1.466-1.721c-1.036-0.01-1.477,1.047-1.486,1.721H36.776
		L36.776,21.266z M33.824,21.734c0,1.154,0.479,2.15,1.633,2.15c0.655,0,0.977-0.225,1.486-1.025l0.479,0.254
		c-0.547,0.9-1.046,1.242-2.014,1.242c-1.329,0-2.17-0.852-2.17-2.641c0-1.574,0.802-2.639,2.092-2.639
		c1.378,0,2.034,1.086,2.034,2.658H33.824L33.824,21.734z"/>
	<polygon fill="#F7F7F7" points="38.565,17.199 39.152,17.199 39.152,24.258 38.565,24.258 38.565,17.199 	"/>
	<path fill="#F7F7F7" d="M44.929,22.957c0.381,0.529,0.802,0.928,1.525,0.928c1.017,0,1.486-0.918,1.486-2.092
		c0-1.318-0.518-2.248-1.574-2.248c-0.576,0-1.241,0.566-1.437,0.908V22.957L44.929,22.957z M44.342,17.199h0.587v2.639
		c0.499-0.525,0.91-0.762,1.593-0.762c1.183,0,2.004,1.115,2.004,2.611c0,1.73-0.724,2.668-2.043,2.668
		c-0.693,0-1.261-0.236-1.632-0.764l-0.097,0.666h-0.412V17.199L44.342,17.199z"/>
	<path fill="#F7F7F7" d="M52.77,21.266c-0.118-1.045-0.577-1.711-1.466-1.721c-1.037-0.01-1.477,1.047-1.486,1.721H52.77
		L52.77,21.266z M49.817,21.734c0,1.154,0.479,2.15,1.632,2.15c0.656,0,0.978-0.225,1.486-1.025l0.479,0.254
		c-0.547,0.9-1.046,1.242-2.014,1.242c-1.329,0-2.17-0.852-2.17-2.641c0-1.574,0.802-2.639,2.092-2.639
		c1.378,0,2.034,1.086,2.034,2.658H49.817L49.817,21.734z"/>
	<path fill="#F7F7F7" d="M54.529,24.258v-5.084h0.587v0.967h0.02c0.273-0.625,0.821-1.064,1.466-1.064h0.264v0.566h-0.264
		c-0.645,0-1.485,0.762-1.485,1.74v2.875H54.529L54.529,24.258z"/>
	<path fill="#F7F7F7" d="M57.823,24.258v-5.084h0.586v0.803c0.548-0.568,0.998-0.9,1.741-0.9c1.056,0,1.505,0.605,1.505,1.711v3.471
		H61.07v-3.412c0-0.84-0.254-1.301-1.037-1.301c-0.626,0-0.978,0.383-1.624,0.967v3.746H57.823L57.823,24.258z"/>
	<path fill="#F7F7F7" d="M66.349,21.266c-0.118-1.045-0.577-1.711-1.467-1.721c-1.035-0.01-1.477,1.047-1.485,1.721H66.349
		L66.349,21.266z M63.396,21.734c0,1.154,0.479,2.15,1.632,2.15c0.654,0,0.977-0.225,1.485-1.025l0.479,0.254
		c-0.546,0.9-1.046,1.242-2.013,1.242c-1.33,0-2.171-0.852-2.171-2.641c0-1.574,0.802-2.639,2.093-2.639
		c1.378,0,2.033,1.086,2.033,2.658H63.396L63.396,21.734z"/>
	<path fill="#F7F7F7" d="M71.637,18.059v-0.859h0.586v0.859H71.637L71.637,18.059z M70.649,25.518
		c0.137,0.041,0.284,0.07,0.412,0.07c0.39,0,0.576-0.156,0.576-0.529v-5.885h0.586v5.895c0,0.732-0.381,0.986-1.046,0.986
		c-0.176,0-0.391-0.02-0.528-0.057V25.518L70.649,25.518z"/>
	<path fill="#F7F7F7" d="M77.649,19.174v5.084h-0.586v-0.803c-0.547,0.566-0.997,0.9-1.74,0.9c-1.056,0-1.505-0.605-1.505-1.711
		v-3.471h0.586v3.412c0,0.84,0.254,1.299,1.036,1.299c0.627,0,0.978-0.381,1.624-0.967v-3.744H77.649L77.649,19.174z"/>
	<path fill="#F7F7F7" d="M79.213,24.258v-5.084h0.586v0.967h0.021c0.273-0.625,0.821-1.064,1.466-1.064h0.264v0.566h-0.264
		c-0.645,0-1.486,0.762-1.486,1.74v2.875H79.213L79.213,24.258z"/>
	<path fill="#F7F7F7" d="M85.186,21.383c-2.327,0.51-2.64,0.988-2.64,1.633c0,0.559,0.381,0.869,0.91,0.869
		c0.547,0,1.221-0.32,1.73-0.84V21.383L85.186,21.383z M85.283,24.258l-0.078-0.615c-0.606,0.477-1.065,0.713-1.847,0.713
		c-0.792,0-1.398-0.49-1.398-1.33c0-1.387,1.134-1.643,3.255-2.113v-0.35c0-0.676-0.293-1.018-1.163-1.018
		c-0.606,0-1.105,0.334-1.476,0.92l-0.392-0.234c0.44-0.822,1.066-1.154,1.887-1.154c1.154,0,1.702,0.469,1.702,1.594v2.658
		c0,0.256,0.019,0.588,0.078,0.93H85.283L85.283,24.258z"/>
	<path fill="#F7F7F7" d="M186.979,24.258v-5.084h0.586v0.803c0.548-0.568,0.998-0.9,1.74-0.9c1.057,0,1.505,0.605,1.505,1.711v3.471
		h-0.585v-3.412c0-0.84-0.254-1.301-1.039-1.301c-0.623,0-0.975,0.383-1.621,0.967v3.746H186.979L186.979,24.258z"/>
	<path fill="#F7F7F7" d="M195.505,21.266c-0.119-1.045-0.58-1.711-1.468-1.721c-1.035-0.01-1.477,1.047-1.483,1.721H195.505
		L195.505,21.266z M192.554,21.734c0,1.154,0.476,2.15,1.632,2.15c0.655,0,0.978-0.225,1.483-1.025l0.48,0.254
		c-0.547,0.9-1.047,1.242-2.016,1.242c-1.328,0-2.168-0.852-2.168-2.641c0-1.574,0.801-2.639,2.092-2.639
		c1.378,0,2.033,1.086,2.033,2.658H192.554L192.554,21.734z"/>
	<path fill="#F7F7F7" d="M201.136,19.174v5.084h-0.587v-0.803c-0.547,0.566-0.999,0.9-1.741,0.9c-1.055,0-1.506-0.605-1.506-1.711
		v-3.471h0.587v3.412c0,0.84,0.254,1.299,1.035,1.299c0.626,0,0.979-0.381,1.625-0.967v-3.744H201.136L201.136,19.174z"/>
	<path fill="#F7F7F7" d="M205.797,20.602c-0.264-0.588-0.646-1.057-1.32-1.057c-0.957,0-1.601,0.596-1.601,2.17
		c0,1.301,0.586,2.17,1.601,2.17c0.725,0,1.116-0.398,1.525-1.055l0.47,0.225c-0.43,0.723-1.027,1.301-1.995,1.301
		c-1.425,0-2.187-1.105-2.187-2.641c0-1.748,0.877-2.639,2.187-2.639c0.959,0,1.555,0.539,1.859,1.377L205.797,20.602
		L205.797,20.602z"/>
	<path fill="#F7F7F7" d="M207.626,24.258v-7.059h0.586v2.777c0.549-0.568,0.998-0.9,1.74-0.9c1.055,0,1.505,0.605,1.505,1.711v3.471
		h-0.585v-3.412c0-0.84-0.254-1.301-1.037-1.301c-0.625,0-0.979,0.383-1.623,0.967v3.746H207.626L207.626,24.258z"/>
	<path fill="#F7F7F7" d="M216.149,18.607h-0.645l-0.801-0.986l-0.803,0.986h-0.645l1.114-1.35h0.665L216.149,18.607L216.149,18.607z
		 M215.74,21.383c-2.327,0.51-2.64,0.988-2.64,1.633c0,0.559,0.379,0.869,0.909,0.869c0.547,0,1.222-0.32,1.73-0.84V21.383
		L215.74,21.383z M215.837,24.258l-0.078-0.615c-0.604,0.477-1.066,0.713-1.848,0.713c-0.791,0-1.397-0.49-1.397-1.33
		c0-1.387,1.134-1.643,3.254-2.113v-0.35c0-0.676-0.292-1.018-1.162-1.018c-0.606,0-1.105,0.334-1.475,0.92l-0.392-0.234
		c0.439-0.822,1.063-1.154,1.885-1.154c1.154,0,1.704,0.469,1.704,1.594v2.658c0,0.256,0.017,0.588,0.077,0.93H215.837
		L215.837,24.258z"/>
	<path fill="#F7F7F7" d="M218.007,19.174v-1.662h0.588v1.662h1.113v0.469h-1.113v3.725c0,0.342,0.156,0.518,0.518,0.518
		c0.194,0,0.41-0.047,0.596-0.107v0.49c-0.195,0.027-0.401,0.088-0.596,0.088c-0.832,0-1.105-0.273-1.105-0.891v-3.822h-0.763
		v-0.469H218.007L218.007,19.174z"/>
	<path fill="#F7F7F7" d="M223.756,21.266c-0.118-1.045-0.577-1.711-1.468-1.721c-1.037-0.01-1.477,1.047-1.485,1.721H223.756
		L223.756,21.266z M220.803,21.734c0,1.154,0.479,2.15,1.633,2.15c0.655,0,0.977-0.225,1.485-1.025l0.479,0.254
		c-0.547,0.9-1.046,1.242-2.015,1.242c-1.328,0-2.169-0.852-2.169-2.641c0-1.574,0.802-2.639,2.091-2.639
		c1.379,0,2.034,1.086,2.034,2.658H220.803L220.803,21.734z"/>
	<polygon fill="#F7F7F7" points="225.546,17.199 226.132,17.199 226.132,24.258 225.546,24.258 225.546,17.199 	"/>
	<path fill="#F7F7F7" d="M233.59,20.453c-0.196-0.342-0.86-0.908-1.437-0.908c-1.057,0-1.572,0.93-1.572,2.248
		c0,1.174,0.467,2.092,1.484,2.092c0.723,0,1.143-0.398,1.524-0.928V20.453L233.59,20.453z M234.177,24.258h-0.41l-0.099-0.666
		c-0.372,0.527-0.938,0.764-1.632,0.764c-1.32,0-2.043-0.938-2.043-2.668c0-1.496,0.82-2.611,2.003-2.611
		c0.685,0,1.095,0.236,1.594,0.762v-2.639h0.587V24.258L234.177,24.258z"/>
	<path fill="#F7F7F7" d="M238.967,21.266c-0.118-1.045-0.577-1.711-1.466-1.721c-1.035-0.01-1.477,1.047-1.486,1.721H238.967
		L238.967,21.266z M236.015,21.734c0,1.154,0.479,2.15,1.633,2.15c0.655,0,0.977-0.225,1.486-1.025l0.479,0.254
		c-0.546,0.9-1.047,1.242-2.014,1.242c-1.328,0-2.171-0.852-2.171-2.641c0-1.574,0.802-2.639,2.093-2.639
		c1.377,0,2.031,1.086,2.031,2.658H236.015L236.015,21.734z"/>
	<polygon fill="#F7F7F7" points="240.755,17.199 241.341,17.199 241.341,24.258 240.755,24.258 240.755,17.199 	"/>
	<path fill="#F7F7F7" d="M245.798,17.258l-1.338,1.35h-0.499l1.085-1.35H245.798L245.798,17.258z M246.024,21.266
		c-0.117-1.045-0.576-1.711-1.467-1.721c-1.035-0.01-1.476,1.047-1.484,1.721H246.024L246.024,21.266z M243.073,21.734
		c0,1.154,0.477,2.15,1.632,2.15c0.654,0,0.978-0.225,1.485-1.025l0.479,0.254c-0.545,0.9-1.047,1.242-2.015,1.242
		c-1.327,0-2.17-0.852-2.17-2.641c0-1.574,0.803-2.639,2.093-2.639c1.377,0,2.035,1.086,2.035,2.658H243.073L243.073,21.734z"/>
	<path fill="#F7F7F7" d="M247.823,24.258v-5.084h0.588v0.771c0.516-0.547,0.897-0.869,1.691-0.869c0.564,0,1.084,0.361,1.229,0.93
		c0.46-0.539,0.95-0.93,1.682-0.93c0.893,0,1.34,0.49,1.34,1.377v3.805h-0.584v-3.863c0-0.566-0.314-0.85-0.881-0.85
		c-0.451,0-1.193,0.48-1.508,0.967v3.746h-0.584v-3.863c0-0.566-0.314-0.85-0.881-0.85c-0.449,0-1.193,0.48-1.504,0.967v3.746
		H247.823L247.823,24.258z"/>
	<path fill="#F7F7F7" d="M256.102,21.715c0,1.379,0.462,2.17,1.507,2.17c1.046,0,1.506-0.791,1.506-2.17
		c0-1.377-0.46-2.17-1.506-2.17C256.563,19.545,256.102,20.338,256.102,21.715L256.102,21.715z M259.7,21.715
		c0,1.379-0.508,2.641-2.092,2.641s-2.092-1.262-2.092-2.641c0-1.377,0.508-2.639,2.092-2.639S259.7,20.338,259.7,21.715
		L259.7,21.715z"/>
	<path fill="#F7F7F7" d="M260.854,24.258v-5.084h0.587v0.803c0.548-0.568,0.998-0.9,1.739-0.9c1.057,0,1.509,0.605,1.509,1.711
		v3.471h-0.588v-3.412c0-0.84-0.256-1.301-1.037-1.301c-0.625,0-0.977,0.383-1.623,0.967v3.746H260.854L260.854,24.258z"/>
	<path fill="#F7F7F7" d="M266.349,19.174v-1.662h0.586v1.662h1.113v0.469h-1.113v3.725c0,0.342,0.156,0.518,0.518,0.518
		c0.196,0,0.41-0.047,0.596-0.107v0.49c-0.193,0.027-0.399,0.088-0.596,0.088c-0.831,0-1.104-0.273-1.104-0.891v-3.822h-0.763
		v-0.469H266.349L266.349,19.174z"/>
	<path fill-rule="evenodd" clip-rule="evenodd" fill="#F7F7F7" d="M194.492,4.016c-1.028-0.033-1.708,0.246-2.126,0.803
		c-0.559-0.488-1.464-0.803-2.229-0.803c-2.353,0-3.571,1.568-3.571,3.154c0,1.098,0.592,1.795,1.34,2.404
		c-0.399,0.121-1.41,0.785-1.41,1.654c0,0.975,0.922,1.201,1.342,1.463v0.035c-0.785,0-1.639,0.539-1.639,1.672
		c0,1.432,1.604,2.162,4.043,2.162c2.893,0,4.2-1.393,4.2-2.684c0-3.623-5.96-1.639-5.96-3.102c0-0.521,0.748-0.557,1.69-0.557
		c2.263,0,3.413-1.221,3.413-2.928c0-0.695-0.209-1.221-0.486-1.604c0.33-0.209,0.89-0.209,1.394-0.209V4.016L194.492,4.016z
		 M191.599,7.117c0,0.836-0.661,1.498-1.48,1.498c-0.924,0-1.568-0.662-1.568-1.498s0.645-1.5,1.568-1.5
		C190.938,5.617,191.599,6.281,191.599,7.117L191.599,7.117z M189.718,13.076c2.09,0,2.736,0.625,2.736,1.043
		c0,0.314-0.471,1.012-1.862,1.012c-1.815,0-2.405-0.313-2.405-1.012C188.187,13.736,188.533,13.076,189.718,13.076L189.718,13.076z
		"/>
	<path fill-rule="evenodd" clip-rule="evenodd" fill="#F7F7F7" d="M203.052,9.068V8.18c0-2.178-1.324-4.182-3.693-4.164
		c-2.456,0-3.936,1.828-3.936,4.705c0,2.873,1.479,4.703,3.832,4.703c1.741,0,2.963-0.557,3.797-1.846l-1.567-0.977
		c-0.54,0.627-1.011,1.08-2.021,1.08c-1.012,0-1.848-0.732-1.88-2.613H203.052L203.052,9.068z M197.584,7.605
		c0.032-1.256,0.695-1.988,1.741-1.988c1.045,0,1.707,0.732,1.741,1.988H197.584L197.584,7.605z"/>
	<path fill-rule="evenodd" clip-rule="evenodd" fill="#F7F7F7" d="M210.762,5.391c-0.784-0.922-1.986-1.375-3.187-1.375
		c-1.568,0-2.998,0.939-2.998,2.631c0,3.152,4.531,2.596,4.531,4.146c0,0.611-0.524,1.027-1.291,1.027
		c-0.922,0-1.603-0.609-2.107-1.305l-1.447,1.078c0.802,1.186,1.986,1.83,3.434,1.83c1.898,0,3.327-0.836,3.327-2.717
		c0-3.313-4.531-2.648-4.531-4.199c0-0.541,0.384-0.891,1.222-0.891c0.679,0,1.253,0.49,1.689,0.959L210.762,5.391L210.762,5.391z"
		/>
	<path fill-rule="evenodd" clip-rule="evenodd" fill="#F7F7F7" d="M211.825,4.189v1.744h1.254v5.398c0,1.291,0.626,2.092,2.23,2.092
		c0.592,0,1.115-0.07,1.707-0.141v-1.775c-0.314,0.07-0.662,0.174-0.993,0.174c-0.539,0-0.784-0.139-0.784-0.627V5.934h1.777V4.189
		h-1.777V1.193h-2.16v2.996H211.825L211.825,4.189z"/>
	<path fill-rule="evenodd" clip-rule="evenodd" fill="#F7F7F7" d="M221.132,2.518V0.496h-2.158v2.021H221.132L221.132,2.518z
		 M221.132,4.189h-2.158v9.061h2.158V4.189L221.132,4.189z"/>
	<path fill-rule="evenodd" clip-rule="evenodd" fill="#F7F7F7" d="M222.843,8.721c0,2.873,1.482,4.703,3.938,4.703
		c2.458,0,3.938-1.83,3.938-4.703c0-2.877-1.48-4.705-3.938-4.705C224.325,4.016,222.843,5.844,222.843,8.721L222.843,8.721z
		 M228.56,8.721c0,2.021-0.576,2.961-1.779,2.961c-1.201,0-1.776-0.939-1.776-2.961s0.575-2.963,1.776-2.963
		C227.983,5.758,228.56,6.699,228.56,8.721L228.56,8.721z"/>
	<path fill-rule="evenodd" clip-rule="evenodd" fill="#F7F7F7" d="M234.413,13.25V6.717c0.365-0.42,1.079-0.959,2.021-0.959
		c0.731,0,1.114,0.383,1.114,1.602v5.891h2.159V7.049c0-1.848-0.869-3.033-2.684-3.033c-1.061,0-1.984,0.594-2.785,1.15V4.189
		h-1.987v9.061H234.413L234.413,13.25z"/>
</g>
</svg>
