<svg xmlns="http://www.w3.org/2000/svg" viewBox="0 0 368.5 34"><path fill="#0093A8" d="M65.1 7.1h-3.3c-1.9 0-3.6 1-4.7 2.4c-1-1.5-2.7-2.4-4.7-2.4v2.1c2 0 3.6 1.6 3.6 3.6v19h2.1v-5 c1 0.8 2.2 1.3 3.6 1.3h3.3c3.1 0 5.7-2.6 5.7-5.7v-9.6C70.8 9.7 68.3 7.1 65.1 7.1z M68.8 22.4c0 2-1.6 3.6-3.6 3.6h-3.3 c-2 0-3.6-1.6-3.6-3.6v-9.6c0-2 1.6-3.6 3.6-3.6h3.3c2 0 3.6 1.6 3.6 3.6V22.4z"/><path fill="#0093A8" d="M13.4 26h-3.3c-2 0-3.6-1.6-3.6-3.6v-3.8H18h1v-1v-4.8c0-3.1-2.6-5.7-5.7-5.7v2.1c2 0 3.6 1.6 3.6 3.6v3.7 H6.5v-3.7c0-2 1.6-3.6 3.6-3.6h0.6l3.5-5.1l-1.7-1.2L9.6 7.2c-2.9 0.3-5.1 2.7-5.1 5.7v9.6c0 3.1 2.6 5.7 5.7 5.7h3.3 c3.1 0 5.7-2.6 5.7-5.7H17C17 24.4 15.4 26 13.4 26z"/><path fill="#0093A8" d="M47.9 16.6L47.9 16.6l-3.3 0c-2 0-3.6-1.6-3.6-3.6v-0.1c0-2 1.6-3.6 3.6-3.6h3.3V7.1h-3.3 c-3.1 0-5.7 2.6-5.7 5.7v0.1c0 3.1 2.6 5.7 5.7 5.7h3.3v0c2 0 3.6 1.6 3.6 3.6v0.1c0 2-1.6 3.6-3.6 3.6h-3.3c-2 0-3.6-1.6-3.6-3.6 h-2.1c0 3.1 2.6 5.7 5.7 5.7h3.3c3.1 0 5.7-2.6 5.7-5.7v-0.1C53.6 19.1 51 16.6 47.9 16.6z"/><path fill="#0093A8" d="M30.7 26h-3.3c-2 0-3.6-1.6-3.6-3.6v-3.8h11.5h1v-1v-4.8c0-3.1-2.6-5.7-5.7-5.7v2.1c2 0 3.6 1.6 3.6 3.6v3.7 H23.8v-3.7c0-2 1.6-3.6 3.6-3.6h0.6l3.5-5.1l-1.7-1.2l-2.9 4.2c-2.9 0.3-5.1 2.7-5.1 5.7v9.6c0 3.1 2.6 5.7 5.7 5.7h3.3 c3.1 0 5.7-2.6 5.7-5.7h-2.1C34.3 24.4 32.7 26 30.7 26z"/><polygon fill="#747476" points="93.2,4 91.8,4 90.4,6.4 91.2,6.4"/><path fill="#747476" d="M91.3 7.1c-0.9 0-1.6 0.3-2 0.9s-0.6 1.5-0.6 2.8c0 1.3 0.2 2.3 0.6 2.9s1.1 0.9 2 0.9 c0.8 0 1.4-0.2 1.8-0.6s0.7-1 0.7-1.7h-1.2c-0.1 0.4-0.2 0.8-0.4 1s-0.5 0.3-0.9 0.3c-0.5 0-0.8-0.2-1.1-0.5S90 12.2 90 11.5v-0.4 h3.9V10c0-1-0.2-1.7-0.6-2.2C92.9 7.4 92.2 7.1 91.3 7.1z M92.7 10.2H90c0-0.8 0.1-1.3 0.4-1.7S90.9 8 91.4 8c0.4 0 0.7 0.1 1 0.4 s0.3 0.7 0.3 1.2V10.2z"/><path fill="#747476" d="M97.7 14.5c0.8 0 1.4-0.2 1.8-0.7s0.7-1.1 0.7-1.9H99c0 0.5-0.1 0.8-0.4 1.1c-0.2 0.3-0.6 0.4-0.9 0.4 c-0.5 0-0.9-0.2-1.1-0.6c-0.2-0.4-0.3-1.1-0.3-2c0-1 0.1-1.7 0.3-2.1c0.2-0.4 0.6-0.6 1.1-0.6c0.4 0 0.7 0.1 0.9 0.3 C98.9 8.7 99 9 99 9.4h1.2V9.3c0-0.7-0.2-1.2-0.7-1.6c-0.5-0.4-1.1-0.6-1.8-0.6c-0.9 0-1.6 0.3-2 0.9c-0.4 0.6-0.6 1.5-0.6 2.8 s0.2 2.2 0.6 2.8C96.1 14.2 96.8 14.5 97.7 14.5z"/><path fill="#747476" d="M104.1 14.5c0.9 0 1.6-0.3 2-0.9s0.6-1.5 0.6-2.8s-0.2-2.2-0.6-2.8c-0.4-0.6-1.1-0.9-2-0.9 c-0.9 0-1.6 0.3-2 0.9c-0.4 0.6-0.6 1.5-0.6 2.8c0 1.3 0.2 2.2 0.6 2.8S103.2 14.5 104.1 14.5z M103 8.8c0.2-0.4 0.6-0.6 1.1-0.6 c0.5 0 0.9 0.2 1.1 0.6c0.2 0.4 0.3 1.1 0.3 2.1c0 1-0.1 1.6-0.3 2c-0.2 0.4-0.6 0.6-1.1 0.6c-0.5 0-0.9-0.2-1.1-0.6 s-0.3-1.1-0.3-2.1C102.7 9.9 102.8 9.2 103 8.8z"/><rect x="108.2" y="4.2" fill="#747476" width="1.2" height="10.1"/><path fill="#747476" d="M113.5 14.5c0.8 0 1.4-0.2 1.8-0.6s0.7-1 0.7-1.7h-1.2c-0.1 0.4-0.2 0.8-0.4 1s-0.5 0.3-0.9 0.3 c-0.5 0-0.8-0.2-1.1-0.5c-0.2-0.3-0.3-0.8-0.3-1.5v-0.4h3.9V10c0-1-0.2-1.7-0.6-2.2c-0.4-0.5-1-0.7-1.9-0.7c-0.9 0-1.6 0.3-2 0.9 c-0.4 0.6-0.6 1.5-0.6 2.8c0 1.3 0.2 2.3 0.6 2.9C111.9 14.2 112.5 14.5 113.5 14.5z M112.5 8.5c0.2-0.4 0.6-0.5 1.1-0.5 c0.4 0 0.7 0.1 1 0.4s0.3 0.7 0.3 1.2v0.6h-2.7C112.1 9.4 112.2 8.8 112.5 8.5z"/><path fill="#747476" d="M124.6 13.6l0.1 0.7h1.2c0-0.1 0-0.3 0-0.5s0-0.4 0-0.8V4.2h-1.2v3.8c-0.2-0.3-0.4-0.6-0.7-0.7 s-0.6-0.2-1-0.2c-0.8 0-1.4 0.3-1.7 0.9s-0.6 1.6-0.6 2.9c0 1.2 0.2 2.1 0.6 2.7s1 0.9 1.8 0.9c0.4 0 0.7-0.1 0.9-0.2 S124.4 13.9 124.6 13.6z M122.2 13c-0.2-0.4-0.3-1.1-0.3-2.2c0-0.9 0.1-1.6 0.3-2s0.6-0.6 1-0.6c0.5 0 0.9 0.2 1.1 0.6 s0.3 1.1 0.3 2.1c0 1-0.1 1.7-0.3 2.1s-0.6 0.6-1 0.6C122.8 13.6 122.4 13.4 122.2 13z"/><polygon fill="#747476" points="127.1,7 128.1,7 129.2,4.2 127.7,4.2"/><path fill="#747476" d="M132.9 7.1c-0.9 0-1.6 0.3-2 0.9c-0.4 0.6-0.6 1.5-0.6 2.8c0 1.3 0.2 2.3 0.6 2.9c0.4 0.6 1.1 0.9 2 0.9 c0.8 0 1.4-0.2 1.8-0.6s0.7-1 0.7-1.7h-1.2c-0.1 0.4-0.2 0.8-0.4 1s-0.5 0.3-0.9 0.3c-0.5 0-0.8-0.2-1.1-0.5 c-0.2-0.3-0.3-0.8-0.3-1.5v-0.4h3.9V10c0-1-0.2-1.7-0.6-2.2C134.4 7.4 133.8 7.1 132.9 7.1z M134.3 10.2h-2.7c0-0.8 0.1-1.3 0.4-1.7 c0.2-0.4 0.6-0.5 1.1-0.5c0.4 0 0.7 0.1 1 0.4s0.3 0.7 0.3 1.2V10.2z"/><polygon fill="#747476" points="134.7,4 133.4,4 132,6.4 132.8,6.4"/><path fill="#747476" d="M137.2 12.8c0 0.6 0.1 1 0.4 1.2s0.7 0.3 1.3 0.3c0.1 0 0.3 0 0.5 0s0.3-0.1 0.5-0.1l0-0.9h0 c-0.3 0-0.4 0-0.5 0c-0.3 0-0.5-0.1-0.6-0.2s-0.2-0.4-0.2-0.8V8.2h1.4V7.3h-1.4v-2l-1.2 0.6v1.4h-1.1v0.9h1.1V12.8z"/><path fill="#747476" d="M145.8 13.2V7.3h-1.2v4.1c0 0.8-0.1 1.3-0.3 1.7s-0.6 0.5-1 0.5c-0.4 0-0.7-0.1-0.9-0.4 c-0.2-0.3-0.3-0.7-0.3-1.4V7.3h-1.2v5.3c0 0.6 0.2 1 0.5 1.4c0.3 0.3 0.8 0.5 1.4 0.5c0.4 0 0.7-0.1 1-0.2s0.6-0.4 0.8-0.8l0.1 0.8 h1.2c0-0.2 0-0.4 0-0.6C145.8 13.5 145.8 13.4 145.8 13.2z"/><path fill="#747476" d="M152.5 13.1V4.2h-1.2v3.8c-0.2-0.3-0.4-0.6-0.7-0.7s-0.6-0.2-1-0.2c-0.8 0-1.4 0.3-1.7 0.9s-0.6 1.6-0.6 2.9 c0 1.2 0.2 2.1 0.6 2.7s1 0.9 1.8 0.9c0.4 0 0.7-0.1 0.9-0.2s0.5-0.4 0.7-0.6l0.1 0.7h1.2c0-0.1 0-0.3 0-0.5S152.5 13.4 152.5 13.1z M150.9 12.9c-0.2 0.4-0.6 0.6-1 0.6c-0.5 0-0.9-0.2-1.1-0.6s-0.3-1.1-0.3-2.2c0-0.9 0.1-1.6 0.3-2s0.6-0.6 1-0.6 c0.5 0 0.9 0.2 1.1 0.6s0.3 1.1 0.3 2.1C151.2 11.8 151.1 12.5 150.9 12.9z"/><path fill="#747476" d="M158.4 13.9c0.4-0.4 0.7-1 0.7-1.7h-1.2c-0.1 0.4-0.2 0.8-0.4 1s-0.5 0.3-0.9 0.3c-0.5 0-0.8-0.2-1.1-0.5 c-0.2-0.3-0.3-0.8-0.3-1.5v-0.4h3.9V10c0-1-0.2-1.7-0.6-2.2c-0.4-0.5-1-0.7-1.9-0.7c-0.9 0-1.6 0.3-2 0.9c-0.4 0.6-0.6 1.5-0.6 2.8 c0 1.3 0.2 2.3 0.6 2.9c0.4 0.6 1.1 0.9 2 0.9C157.3 14.5 157.9 14.3 158.4 13.9z M155.5 8.5c0.2-0.4 0.6-0.5 1.1-0.5 c0.4 0 0.7 0.1 1 0.4s0.3 0.7 0.3 1.2v0.6h-2.7C155.2 9.4 155.3 8.8 155.5 8.5z"/><path fill="#747476" d="M165.2 12.3c0-0.4-0.1-0.8-0.4-1.1c-0.2-0.3-0.7-0.6-1.4-0.9l-1.2-0.6c-0.3-0.1-0.4-0.3-0.6-0.4 s-0.2-0.3-0.2-0.5c0-0.3 0.1-0.5 0.3-0.6s0.5-0.2 0.8-0.2c0.4 0 0.6 0.1 0.8 0.3c0.2 0.2 0.3 0.5 0.3 0.8h1.3V9c0-0.6-0.2-1-0.6-1.4 c-0.4-0.3-1-0.5-1.7-0.5c-0.7 0-1.3 0.2-1.8 0.6c-0.4 0.4-0.7 0.9-0.7 1.5c0 0.4 0.1 0.7 0.3 0.9c0.2 0.2 0.5 0.5 1 0.7l1.3 0.7 c0.4 0.2 0.6 0.4 0.8 0.5s0.2 0.4 0.2 0.6c0 0.3-0.1 0.5-0.3 0.7c-0.2 0.2-0.5 0.3-0.8 0.3c-0.4 0-0.7-0.1-0.9-0.3 c-0.2-0.2-0.3-0.5-0.3-1h-1.3c0 0.8 0.2 1.3 0.6 1.7c0.4 0.4 1 0.6 1.8 0.6c0.8 0 1.4-0.2 1.8-0.6C164.9 13.5 165.2 13 165.2 12.3z"/><path fill="#747476" d="M174.7 12.3c0-0.4-0.1-0.8-0.4-1.1c-0.2-0.3-0.7-0.6-1.4-0.9l-1.2-0.6c-0.3-0.1-0.4-0.3-0.6-0.4 s-0.2-0.3-0.2-0.5c0-0.3 0.1-0.5 0.3-0.6s0.5-0.2 0.8-0.2c0.4 0 0.6 0.1 0.8 0.3c0.2 0.2 0.3 0.5 0.3 0.8h1.3V9c0-0.6-0.2-1-0.6-1.4 c-0.4-0.3-1-0.5-1.7-0.5c-0.7 0-1.3 0.2-1.8 0.6c-0.4 0.4-0.7 0.9-0.7 1.5c0 0.4 0.1 0.7 0.3 0.9c0.2 0.2 0.5 0.5 1 0.7l1.3 0.7 c0.4 0.2 0.6 0.4 0.8 0.5s0.2 0.4 0.2 0.6c0 0.3-0.1 0.5-0.3 0.7c-0.2 0.2-0.5 0.3-0.8 0.3c-0.4 0-0.7-0.1-0.9-0.3 c-0.2-0.2-0.3-0.5-0.3-1h-1.3c0 0.8 0.2 1.3 0.6 1.7c0.4 0.4 1 0.6 1.8 0.6c0.8 0 1.4-0.2 1.8-0.6C174.4 13.5 174.7 13 174.7 12.3z"/><path fill="#747476" d="M180.5 13.6c0.4-0.6 0.6-1.5 0.6-2.8s-0.2-2.2-0.6-2.8c-0.4-0.6-1.1-0.9-2-0.9c-0.9 0-1.6 0.3-2 0.9 c-0.4 0.6-0.6 1.5-0.6 2.8c0 1.3 0.2 2.2 0.6 2.8s1.1 0.9 2 0.9C179.4 14.5 180.1 14.2 180.5 13.6z M177.4 12.8 c-0.2-0.4-0.3-1.1-0.3-2.1c0-0.9 0.1-1.6 0.3-2c0.2-0.4 0.6-0.6 1.1-0.6c0.5 0 0.9 0.2 1.1 0.6c0.2 0.4 0.3 1.1 0.3 2.1 c0 1-0.1 1.6-0.3 2c-0.2 0.4-0.6 0.6-1.1 0.6C178 13.5 177.6 13.3 177.4 12.8z"/><path fill="#747476" d="M186 13c-0.2 0.3-0.6 0.4-0.9 0.4c-0.5 0-0.9-0.2-1.1-0.6s-0.3-1.1-0.3-2c0-1 0.1-1.7 0.3-2.1 s0.6-0.6 1.1-0.6c0.4 0 0.7 0.1 0.9 0.3c0.2 0.2 0.3 0.5 0.3 1h1.2V9.3c0-0.7-0.2-1.2-0.7-1.6c-0.5-0.4-1.1-0.6-1.8-0.6 c-0.9 0-1.6 0.3-2 0.9s-0.6 1.5-0.6 2.8s0.2 2.2 0.6 2.8s1.1 0.9 2 0.9c0.8 0 1.4-0.2 1.8-0.7s0.7-1.1 0.7-1.9h-1.2 C186.4 12.4 186.3 12.8 186 13z"/><rect x="189.1" y="4.2" fill="#747476" width="1.2" height="1.3"/><rect x="189.1" y="7.3" fill="#747476" width="1.2" height="7"/><path fill="#747476" d="M195.6 13.4l0.1 0.9h1.2c0-0.3-0.1-0.6-0.1-0.9s0-0.6 0-1V9.2c0-0.7-0.2-1.2-0.6-1.5s-1-0.5-1.8-0.5 c-0.8 0-1.4 0.2-1.9 0.5s-0.6 0.8-0.6 1.4v0.1h1.3V9c0-0.4 0.1-0.6 0.3-0.8s0.5-0.3 1-0.3c0.4 0 0.7 0.1 0.8 0.3s0.2 0.6 0.2 1.1 v0.3h-0.7c-1 0-1.8 0.2-2.3 0.6s-0.8 1-0.8 1.8c0 0.6 0.2 1.2 0.6 1.6c0.4 0.4 0.9 0.6 1.5 0.6c0.3 0 0.7-0.1 1-0.2 S195.3 13.7 195.6 13.4z M194 13.3c-0.3 0-0.6-0.1-0.8-0.3c-0.2-0.2-0.3-0.5-0.3-0.9c0-0.5 0.2-0.9 0.6-1.1s1.1-0.3 2-0.3v0.5 c0 0.7-0.1 1.2-0.4 1.6S194.5 13.3 194 13.3z"/><rect x="198.3" y="4.2" fill="#747476" width="1.2" height="10.1"/><path fill="#747476" d="M206.1 12.1h-1.2c-0.1 0.4-0.2 0.8-0.4 1s-0.5 0.3-0.9 0.3c-0.5 0-0.8-0.2-1.1-0.5c-0.2-0.3-0.3-0.8-0.3-1.5 v-0.4h3.9V10c0-1-0.2-1.7-0.6-2.2c-0.4-0.5-1-0.7-1.9-0.7c-0.9 0-1.6 0.3-2 0.9c-0.4 0.6-0.6 1.5-0.6 2.8c0 1.3 0.2 2.3 0.6 2.9 c0.4 0.6 1.1 0.9 2 0.9c0.8 0 1.4-0.2 1.8-0.6S206.1 12.9 206.1 12.1z M202.6 8.5c0.2-0.4 0.6-0.5 1.1-0.5c0.4 0 0.7 0.1 1 0.4 s0.3 0.7 0.3 1.2v0.6h-2.7C202.2 9.4 202.4 8.8 202.6 8.5z"/><path fill="#747476" d="M211.9 11.2c-0.2-0.3-0.7-0.6-1.4-0.9l-1.2-0.6c-0.3-0.1-0.4-0.3-0.6-0.4s-0.2-0.3-0.2-0.5 c0-0.3 0.1-0.5 0.3-0.6s0.5-0.2 0.8-0.2c0.4 0 0.6 0.1 0.8 0.3c0.2 0.2 0.3 0.5 0.3 0.8h1.3V9c0-0.6-0.2-1-0.6-1.4 c-0.4-0.3-1-0.5-1.7-0.5c-0.7 0-1.3 0.2-1.8 0.6c-0.4 0.4-0.7 0.9-0.7 1.5c0 0.4 0.1 0.7 0.3 0.9s0.5 0.5 1 0.7l1.3 0.7 c0.4 0.2 0.6 0.4 0.8 0.5s0.2 0.4 0.2 0.6c0 0.3-0.1 0.5-0.3 0.7c-0.2 0.2-0.5 0.3-0.8 0.3c-0.4 0-0.7-0.1-0.9-0.3 c-0.2-0.2-0.3-0.5-0.3-1h-1.3c0 0.8 0.2 1.3 0.6 1.7c0.4 0.4 1 0.6 1.8 0.6c0.8 0 1.4-0.2 1.8-0.6s0.7-0.9 0.7-1.6 C212.2 11.9 212.1 11.5 211.9 11.2z"/><path fill="#747476" d="M221.3 13.9c0.4-0.4 0.7-1 0.7-1.7h-1.2c-0.1 0.4-0.2 0.8-0.4 1s-0.5 0.3-0.9 0.3c-0.5 0-0.8-0.2-1.1-0.5 c-0.2-0.3-0.3-0.8-0.3-1.5v-0.4h3.9V10c0-1-0.2-1.7-0.6-2.2c-0.4-0.5-1-0.7-1.9-0.7c-0.9 0-1.6 0.3-2 0.9c-0.4 0.6-0.6 1.5-0.6 2.8 c0 1.3 0.2 2.3 0.6 2.9c0.4 0.6 1.1 0.9 2 0.9C220.3 14.5 220.9 14.3 221.3 13.9z M218.5 8.5c0.2-0.4 0.6-0.5 1.1-0.5 c0.4 0 0.7 0.1 1 0.4s0.3 0.7 0.3 1.2v0.6h-2.7C218.1 9.4 218.2 8.8 218.5 8.5z"/><path fill="#747476" d="M225.9 14.3c0.2 0 0.3-0.1 0.5-0.1l0-0.9h0c-0.3 0-0.4 0-0.5 0c-0.3 0-0.5-0.1-0.6-0.2s-0.2-0.4-0.2-0.8V8.2 h1.4V7.3H225v-2l-1.2 0.6v1.4h-1.1v0.9h1.1v4.6c0 0.6 0.1 1 0.4 1.2c0.2 0.2 0.7 0.3 1.3 0.3C225.6 14.4 225.7 14.4 225.9 14.3z"/><path fill="#747476" d="M235.5 13.6c0.4-0.6 0.6-1.6 0.6-2.9c0-1.2-0.2-2.2-0.6-2.7s-0.9-0.9-1.7-0.9c-0.3 0-0.6 0.1-0.9 0.2 c-0.3 0.1-0.5 0.4-0.7 0.6l-0.1-0.7h-1.2c0 0.1 0 0.3 0 0.5c0 0.2 0 0.4 0 0.8V17h1.2v-3.5c0.2 0.3 0.4 0.6 0.7 0.7s0.6 0.2 1 0.2 C234.6 14.5 235.2 14.2 235.5 13.6z M234.5 12.8c-0.2 0.4-0.5 0.6-1 0.6c-0.5 0-0.9-0.2-1.1-0.6s-0.3-1.1-0.3-2c0-1 0.1-1.7 0.3-2.2 c0.2-0.4 0.6-0.7 1-0.7c0.5 0 0.9 0.2 1.1 0.6c0.2 0.4 0.3 1.1 0.3 2.2C234.8 11.7 234.7 12.4 234.5 12.8z"/><path fill="#747476" d="M240 7.1c-0.9 0-1.6 0.3-2 0.9c-0.4 0.6-0.6 1.5-0.6 2.8c0 1.3 0.2 2.3 0.6 2.9s1.1 0.9 2 0.9 c0.8 0 1.4-0.2 1.8-0.6s0.7-1 0.7-1.7h-1.2c-0.1 0.4-0.2 0.8-0.4 1s-0.5 0.3-0.9 0.3c-0.5 0-0.8-0.2-1.1-0.5s-0.3-0.8-0.3-1.5v-0.4 h3.9V10c0-1-0.2-1.7-0.6-2.2C241.5 7.4 240.9 7.1 240 7.1z M241.3 10.2h-2.7c0-0.8 0.1-1.3 0.4-1.7s0.6-0.5 1.1-0.5 c0.4 0 0.7 0.1 1 0.4s0.3 0.7 0.3 1.2V10.2z"/><polygon fill="#747476" points="241.8,4 240.5,4 239.1,6.4 239.9,6.4"/><path fill="#747476" d="M247.8 14.3h1.2c0-0.1 0-0.3 0-0.5c0-0.2 0-0.4 0-0.8V4.2h-1.2v3.8c-0.2-0.3-0.4-0.6-0.7-0.7s-0.6-0.2-1-0.2 c-0.8 0-1.4 0.3-1.7 0.9c-0.4 0.6-0.6 1.6-0.6 2.9c0 1.2 0.2 2.1 0.6 2.7c0.4 0.6 1 0.9 1.8 0.9c0.4 0 0.7-0.1 0.9-0.2 s0.5-0.4 0.7-0.6L247.8 14.3z M247.4 12.9c-0.2 0.4-0.6 0.6-1 0.6c-0.5 0-0.9-0.2-1.1-0.6s-0.3-1.1-0.3-2.2c0-0.9 0.1-1.6 0.3-2 s0.6-0.6 1-0.6c0.5 0 0.9 0.2 1.1 0.6c0.2 0.4 0.3 1.1 0.3 2.1C247.7 11.8 247.6 12.5 247.4 12.9z"/><path fill="#747476" d="M254.2 14.3h1.2c0-0.3-0.1-0.6-0.1-0.9s0-0.6 0-1V9.2c0-0.7-0.2-1.2-0.6-1.5s-1-0.5-1.8-0.5 c-0.8 0-1.4 0.2-1.9 0.5c-0.4 0.3-0.6 0.8-0.6 1.4v0.1h1.3V9c0-0.4 0.1-0.6 0.3-0.8c0.2-0.2 0.5-0.3 1-0.3c0.4 0 0.7 0.1 0.8 0.3 c0.2 0.2 0.2 0.6 0.2 1.1v0.3h-0.7c-1 0-1.8 0.2-2.3 0.6c-0.5 0.4-0.8 1-0.8 1.8c0 0.6 0.2 1.2 0.6 1.6c0.4 0.4 0.9 0.6 1.5 0.6 c0.3 0 0.7-0.1 1-0.2s0.6-0.4 0.8-0.7L254.2 14.3z M254.1 11.2c0 0.7-0.1 1.2-0.4 1.6c-0.3 0.4-0.6 0.6-1.1 0.6 c-0.3 0-0.6-0.1-0.8-0.3c-0.2-0.2-0.3-0.5-0.3-0.9c0-0.5 0.2-0.9 0.6-1.1s1.1-0.3 2-0.3V11.2z"/><path fill="#747476" d="M260.8 8c-0.2-0.3-0.5-0.5-0.7-0.6c-0.3-0.1-0.6-0.2-1-0.2c-0.8 0-1.4 0.3-1.8 0.9s-0.6 1.5-0.6 2.7 c0 1.3 0.2 2.3 0.6 2.9s1 0.9 1.8 0.9c0.3 0 0.6-0.1 0.9-0.2s0.5-0.4 0.8-0.7v1c0 0.6-0.1 1.1-0.3 1.3s-0.5 0.3-0.9 0.3 c-0.3 0-0.5-0.1-0.7-0.3c-0.2-0.2-0.3-0.4-0.3-0.8h-1.4c0 0.6 0.2 1.1 0.7 1.4s1 0.5 1.7 0.5c0.5 0 0.9-0.1 1.2-0.2s0.6-0.3 0.8-0.6 c0.1-0.2 0.2-0.4 0.3-0.6c0.1-0.2 0.1-0.6 0.1-1V8.5c0-0.3 0-0.5 0-0.7c0-0.2 0-0.4 0.1-0.5h-1.2L260.8 8z M260.5 12.8 c-0.2 0.4-0.6 0.6-1.1 0.6c-0.5 0-0.8-0.2-1-0.6c-0.2-0.4-0.3-1.1-0.3-2.1c0-1 0.1-1.8 0.3-2.2s0.6-0.6 1.1-0.6 c0.5 0 0.9 0.2 1.1 0.6c0.2 0.4 0.3 1.1 0.3 2.1C260.8 11.7 260.7 12.4 260.5 12.8z"/><path fill="#747476" d="M266.1 7.1c-0.9 0-1.6 0.3-2 0.9c-0.4 0.6-0.6 1.5-0.6 2.8c0 1.3 0.2 2.2 0.6 2.8s1.1 0.9 2 0.9 c0.9 0 1.6-0.3 2-0.9s0.6-1.5 0.6-2.8s-0.2-2.2-0.6-2.8C267.7 7.4 267 7.1 266.1 7.1z M267.2 12.8c-0.2 0.4-0.6 0.6-1.1 0.6 c-0.5 0-0.9-0.2-1.1-0.6s-0.3-1.1-0.3-2.1c0-0.9 0.1-1.6 0.3-2c0.2-0.4 0.6-0.6 1.1-0.6c0.5 0 0.9 0.2 1.1 0.6 c0.2 0.4 0.3 1.1 0.3 2.1C267.5 11.8 267.4 12.4 267.2 12.8z"/><path fill="#747476" d="M274 8c-0.2-0.3-0.5-0.5-0.7-0.6s-0.6-0.2-1-0.2c-0.8 0-1.4 0.3-1.8 0.9s-0.6 1.5-0.6 2.7 c0 1.3 0.2 2.3 0.6 2.9s1 0.9 1.8 0.9c0.3 0 0.6-0.1 0.9-0.2s0.5-0.4 0.8-0.7v1c0 0.6-0.1 1.1-0.3 1.3c-0.2 0.2-0.5 0.3-0.9 0.3 c-0.3 0-0.5-0.1-0.7-0.3s-0.3-0.4-0.3-0.8h-1.4c0 0.6 0.2 1.1 0.7 1.4s1 0.5 1.7 0.5c0.5 0 0.9-0.1 1.2-0.2s0.6-0.3 0.8-0.6 c0.1-0.2 0.2-0.4 0.3-0.6s0.1-0.6 0.1-1V8.5c0-0.3 0-0.5 0-0.7c0-0.2 0-0.4 0.1-0.5h-1.2L274 8z M273.7 12.8 c-0.2 0.4-0.6 0.6-1.1 0.6c-0.5 0-0.8-0.2-1-0.6s-0.3-1.1-0.3-2.1c0-1 0.1-1.8 0.3-2.2s0.6-0.6 1.1-0.6c0.5 0 0.9 0.2 1.1 0.6 s0.3 1.1 0.3 2.1C274.1 11.7 273.9 12.4 273.7 12.8z"/><rect x="277" y="7.3" fill="#747476" width="1.2" height="7"/><rect x="277" y="4.2" fill="#747476" width="1.2" height="1.3"/><path fill="#747476" d="M283.6 13.5V17h1.2V8.5c0-0.4 0-0.6 0-0.8c0-0.2 0-0.3 0-0.4h-1.2L283.6 8c-0.2-0.3-0.5-0.5-0.7-0.6 s-0.6-0.2-0.9-0.2c-0.8 0-1.4 0.3-1.8 0.9c-0.4 0.6-0.6 1.5-0.6 2.7c0 1.3 0.2 2.2 0.6 2.9c0.4 0.6 1 0.9 1.7 0.9 c0.4 0 0.7-0.1 1-0.2S283.4 13.8 283.6 13.5z M281.2 12.8c-0.2-0.4-0.3-1.1-0.3-2c0-1 0.1-1.8 0.3-2.2c0.2-0.4 0.6-0.6 1.1-0.6 c0.5 0 0.8 0.2 1 0.7c0.2 0.4 0.3 1.2 0.3 2.2c0 0.9-0.1 1.6-0.3 2c-0.2 0.4-0.6 0.6-1.1 0.6C281.8 13.5 281.4 13.2 281.2 12.8z"/><path fill="#747476" d="M291.4 13.2V7.3h-1.2v4.1c0 0.8-0.1 1.3-0.3 1.7s-0.6 0.5-1 0.5c-0.4 0-0.7-0.1-0.9-0.4s-0.3-0.7-0.3-1.4 V7.3h-1.2v5.3c0 0.6 0.2 1 0.5 1.4s0.8 0.5 1.4 0.5c0.4 0 0.7-0.1 1-0.2s0.6-0.4 0.8-0.8l0.1 0.8h1.2c0-0.2 0-0.4 0-0.6 C291.4 13.5 291.4 13.4 291.4 13.2z"/><path fill="#747476" d="M295.5 7.1c-0.9 0-1.6 0.3-2 0.9c-0.4 0.6-0.6 1.5-0.6 2.8c0 1.3 0.2 2.3 0.6 2.9s1.1 0.9 2 0.9 c0.8 0 1.4-0.2 1.8-0.6s0.7-1 0.7-1.7h-1.2c-0.1 0.4-0.2 0.8-0.4 1s-0.5 0.3-0.9 0.3c-0.5 0-0.8-0.2-1.1-0.5s-0.3-0.8-0.3-1.5v-0.4 h3.9V10c0-1-0.2-1.7-0.6-2.2C297 7.4 296.4 7.1 295.5 7.1z M296.8 10.2h-2.7c0-0.8 0.1-1.3 0.4-1.7s0.6-0.5 1.1-0.5 c0.4 0 0.7 0.1 1 0.4s0.3 0.7 0.3 1.2V10.2z"/><path fill="#747476" d="M302.4 10.3l-1.2-0.6c-0.3-0.1-0.4-0.3-0.6-0.4s-0.2-0.3-0.2-0.5c0-0.3 0.1-0.5 0.3-0.6s0.5-0.2 0.8-0.2 c0.4 0 0.6 0.1 0.8 0.3c0.2 0.2 0.3 0.5 0.3 0.8h1.3V9c0-0.6-0.2-1-0.6-1.4c-0.4-0.3-1-0.5-1.7-0.5c-0.7 0-1.3 0.2-1.8 0.6 c-0.4 0.4-0.7 0.9-0.7 1.5c0 0.4 0.1 0.7 0.3 0.9c0.2 0.2 0.5 0.5 1 0.7l1.3 0.7c0.4 0.2 0.6 0.4 0.8 0.5s0.2 0.4 0.2 0.6 c0 0.3-0.1 0.5-0.3 0.7c-0.2 0.2-0.5 0.3-0.8 0.3c-0.4 0-0.7-0.1-0.9-0.3c-0.2-0.2-0.3-0.5-0.3-1h-1.3c0 0.8 0.2 1.3 0.6 1.7 c0.4 0.4 1 0.6 1.8 0.6c0.8 0 1.4-0.2 1.8-0.6c0.5-0.4 0.7-0.9 0.7-1.6c0-0.4-0.1-0.8-0.4-1.1C303.5 11 303.1 10.6 302.4 10.3z"/><path fill="#747476" d="M309.8 8.7c-0.2 0-0.4 0.1-0.6 0.2C309.1 9 309 9.2 309 9.4c0 0.2 0.1 0.4 0.2 0.6c0.1 0.1 0.3 0.2 0.6 0.2 c0.2 0 0.4-0.1 0.6-0.2c0.1-0.1 0.2-0.3 0.2-0.6s-0.1-0.4-0.2-0.6C310.2 8.7 310 8.7 309.8 8.7z"/><polygon fill="#747476" points="320.7,13.1 317.3,13.1 317.3,4.2 315.9,4.2 315.9,14.3 320.7,14.3"/><path fill="#747476" d="M326.5 12.4V9.2c0-0.7-0.2-1.2-0.6-1.5s-1-0.5-1.8-0.5c-0.8 0-1.4 0.2-1.9 0.5c-0.4 0.3-0.6 0.8-0.6 1.4v0.1 h1.3V9c0-0.4 0.1-0.6 0.3-0.8c0.2-0.2 0.5-0.3 1-0.3c0.4 0 0.7 0.1 0.8 0.3c0.2 0.2 0.2 0.6 0.2 1.1v0.3h-0.7c-1 0-1.8 0.2-2.3 0.6 c-0.5 0.4-0.8 1-0.8 1.8c0 0.6 0.2 1.2 0.6 1.6c0.4 0.4 0.9 0.6 1.5 0.6c0.3 0 0.7-0.1 1-0.2s0.6-0.4 0.8-0.7l0.1 0.9h1.2 c0-0.3-0.1-0.6-0.1-0.9S326.5 12.8 326.5 12.4z M325.3 11.2c0 0.7-0.1 1.2-0.4 1.6c-0.3 0.4-0.6 0.6-1.1 0.6c-0.3 0-0.6-0.1-0.8-0.3 c-0.2-0.2-0.3-0.5-0.3-0.9c0-0.5 0.2-0.9 0.6-1.1s1.1-0.3 2-0.3V11.2z"/><path fill="#747476" d="M333.1 13.2V7.3h-1.2v4.1c0 0.8-0.1 1.3-0.3 1.7s-0.6 0.5-1 0.5c-0.4 0-0.7-0.1-0.9-0.4 c-0.2-0.3-0.3-0.7-0.3-1.4V7.3h-1.2v5.3c0 0.6 0.2 1 0.5 1.4c0.3 0.3 0.8 0.5 1.4 0.5c0.4 0 0.7-0.1 1-0.2s0.6-0.4 0.8-0.8l0.1 0.8 h1.2c0-0.2 0-0.4 0-0.6S333.1 13.4 333.1 13.2z"/><path fill="#747476" d="M337 13.5c-0.4 0-0.7-0.1-0.9-0.3s-0.3-0.5-0.3-1h-1.3c0 0.8 0.2 1.3 0.6 1.7s1 0.6 1.8 0.6 c0.8 0 1.4-0.2 1.8-0.6c0.5-0.4 0.7-0.9 0.7-1.6c0-0.4-0.1-0.8-0.4-1.1s-0.7-0.6-1.4-0.9l-1.2-0.6c-0.3-0.1-0.4-0.3-0.6-0.4 s-0.2-0.3-0.2-0.5c0-0.3 0.1-0.5 0.3-0.6s0.5-0.2 0.8-0.2c0.4 0 0.6 0.1 0.8 0.3s0.3 0.5 0.3 0.8h1.3V9c0-0.6-0.2-1-0.6-1.4 s-1-0.5-1.7-0.5c-0.7 0-1.3 0.2-1.8 0.6c-0.4 0.4-0.7 0.9-0.7 1.5c0 0.4 0.1 0.7 0.3 0.9c0.2 0.2 0.5 0.5 1 0.7l1.3 0.7 c0.4 0.2 0.6 0.4 0.8 0.5s0.2 0.4 0.2 0.6c0 0.3-0.1 0.5-0.3 0.7S337.3 13.5 337 13.5z"/><path fill="#747476" d="M343.5 14.1c0.3-0.2 0.6-0.4 0.8-0.7l0.1 0.9h1.2c0-0.3-0.1-0.6-0.1-0.9s0-0.6 0-1V9.2 c0-0.7-0.2-1.2-0.6-1.5s-1-0.5-1.8-0.5c-0.8 0-1.4 0.2-1.9 0.5c-0.4 0.3-0.6 0.8-0.6 1.4v0.1h1.3V9c0-0.4 0.1-0.6 0.3-0.8 c0.2-0.2 0.5-0.3 1-0.3c0.4 0 0.7 0.1 0.8 0.3c0.2 0.2 0.2 0.6 0.2 1.1v0.3h-0.7c-1 0-1.8 0.2-2.3 0.6c-0.5 0.4-0.8 1-0.8 1.8 c0 0.6 0.2 1.2 0.6 1.6c0.4 0.4 0.9 0.6 1.5 0.6C342.9 14.4 343.2 14.3 343.5 14.1z M341.7 12.1c0-0.5 0.2-0.9 0.6-1.1 s1.1-0.3 2-0.3v0.5c0 0.7-0.1 1.2-0.4 1.6c-0.3 0.4-0.6 0.6-1.1 0.6c-0.3 0-0.6-0.1-0.8-0.3C341.8 12.7 341.7 12.5 341.7 12.1z"/><path fill="#747476" d="M348.3 14.3v-4.1c0-0.8 0.1-1.3 0.3-1.7s0.6-0.5 1-0.5c0.4 0 0.7 0.1 0.9 0.4s0.3 0.7 0.3 1.4v4.5h1.2V9 c0-0.6-0.2-1-0.5-1.4c-0.3-0.3-0.8-0.5-1.4-0.5c-0.4 0-0.7 0.1-1 0.2s-0.6 0.4-0.8 0.7l-0.1-0.8h-1.2c0 0.2 0 0.4 0.1 0.6 c0 0.2 0 0.3 0 0.5v5.9H348.3z"/><path fill="#747476" d="M354.9 14.3v-4.1c0-0.8 0.1-1.3 0.3-1.7s0.6-0.5 1-0.5c0.4 0 0.7 0.1 0.9 0.4c0.2 0.3 0.3 0.7 0.3 1.4v4.5 h1.2V9c0-0.6-0.2-1-0.5-1.4s-0.8-0.5-1.4-0.5c-0.4 0-0.7 0.1-1 0.2c-0.3 0.2-0.6 0.4-0.8 0.7l-0.1-0.8h-1.2c0 0.2 0 0.4 0.1 0.6 c0 0.2 0 0.3 0 0.5v5.9H354.9z"/><path fill="#747476" d="M365.2 11.1V10c0-1-0.2-1.7-0.6-2.2c-0.4-0.5-1-0.7-1.9-0.7c-0.9 0-1.6 0.3-2 0.9c-0.4 0.6-0.6 1.5-0.6 2.8 c0 1.3 0.2 2.3 0.6 2.9c0.4 0.6 1.1 0.9 2 0.9c0.8 0 1.4-0.2 1.8-0.6s0.7-1 0.7-1.7H364c-0.1 0.4-0.2 0.8-0.4 1s-0.5 0.3-0.9 0.3 c-0.5 0-0.8-0.2-1.1-0.5c-0.2-0.3-0.3-0.8-0.3-1.5v-0.4H365.2z M361.7 8.5c0.2-0.4 0.6-0.5 1.1-0.5c0.4 0 0.7 0.1 1 0.4 S364 9 364 9.6v0.6h-2.7C361.3 9.4 361.5 8.8 361.7 8.5z"/><path fill="#747476" d="M92 20.6c-0.4 0-0.7 0.1-1 0.2c-0.3 0.2-0.6 0.4-0.8 0.8v-3.9h-1.2v10.1h1.2v-4.1c0-0.8 0.1-1.3 0.3-1.7 s0.6-0.5 1-0.5c0.4 0 0.7 0.1 0.9 0.4s0.3 0.7 0.3 1.4v4.5h1.2v-5.3c0-0.6-0.2-1-0.5-1.4S92.5 20.6 92 20.6z"/><path fill="#747476" d="M100.4 25.9v-3.3c0-0.7-0.2-1.2-0.6-1.5s-1-0.5-1.8-0.5c-0.8 0-1.4 0.2-1.9 0.5c-0.4 0.3-0.6 0.8-0.6 1.4 v0.1h1.3v-0.1c0-0.4 0.1-0.6 0.3-0.8c0.2-0.2 0.5-0.3 1-0.3c0.4 0 0.7 0.1 0.8 0.3c0.2 0.2 0.2 0.6 0.2 1.1v0.3h-0.7 c-1 0-1.8 0.2-2.3 0.6c-0.5 0.4-0.8 1-0.8 1.8c0 0.6 0.2 1.2 0.6 1.6c0.4 0.4 0.9 0.6 1.5 0.6c0.3 0 0.7-0.1 1-0.2s0.6-0.4 0.8-0.7 l0.1 0.9h1.2c0-0.3-0.1-0.6-0.1-0.9S100.4 26.3 100.4 25.9z M99.2 24.7c0 0.7-0.1 1.2-0.4 1.6c-0.3 0.4-0.6 0.6-1.1 0.6 c-0.3 0-0.6-0.1-0.8-0.3c-0.2-0.2-0.3-0.5-0.3-0.9c0-0.5 0.2-0.9 0.6-1.1s1.1-0.3 2-0.3V24.7z"/><path fill="#747476" d="M107.1 26.7v-5.9h-1.2v4.1c0 0.8-0.1 1.3-0.3 1.7s-0.6 0.5-1 0.5c-0.4 0-0.7-0.1-0.9-0.4 c-0.2-0.3-0.3-0.7-0.3-1.4v-4.5h-1.2v5.3c0 0.6 0.2 1 0.5 1.4c0.3 0.3 0.8 0.5 1.4 0.5c0.4 0 0.7-0.1 1-0.2s0.6-0.4 0.8-0.8l0.1 0.8 h1.2c0-0.2 0-0.4 0-0.6C107.1 27 107.1 26.9 107.1 26.7z"/><path fill="#747476" d="M110.6 18.8l-1.2 0.6v1.4h-1.1v0.9h1.1v4.6c0 0.6 0.1 1 0.4 1.2s0.7 0.3 1.3 0.3c0.1 0 0.3 0 0.5 0 s0.3-0.1 0.5-0.1l0-0.9h0c-0.3 0-0.4 0-0.5 0c-0.3 0-0.5-0.1-0.6-0.2s-0.2-0.4-0.2-0.8v-4.2h1.4v-0.9h-1.4V18.8z"/><path fill="#747476" d="M115.7 20.6c-0.9 0-1.6 0.3-2 0.9c-0.4 0.6-0.6 1.5-0.6 2.8c0 1.3 0.2 2.3 0.6 2.9c0.4 0.6 1.1 0.9 2 0.9 c0.8 0 1.4-0.2 1.8-0.6c0.4-0.4 0.7-1 0.7-1.7H117c-0.1 0.4-0.2 0.8-0.4 1s-0.5 0.3-0.9 0.3c-0.5 0-0.8-0.2-1.1-0.5 c-0.2-0.3-0.3-0.8-0.3-1.5v-0.4h3.9v-1.1c0-1-0.2-1.7-0.6-2.2C117.2 20.9 116.6 20.6 115.7 20.6z M117 23.7h-2.7 c0-0.8 0.1-1.3 0.4-1.7c0.2-0.4 0.6-0.5 1.1-0.5c0.4 0 0.7 0.1 1 0.4s0.3 0.7 0.3 1.2V23.7z"/><polygon fill="#747476" points="125.8,19.9 127.8,17.5 126.4,17.5 125,19.9"/><path fill="#747476" d="M125.9 20.6c-0.9 0-1.6 0.3-2 0.9c-0.4 0.6-0.6 1.5-0.6 2.8c0 1.3 0.2 2.3 0.6 2.9c0.4 0.6 1.1 0.9 2 0.9 c0.8 0 1.4-0.2 1.8-0.6c0.4-0.4 0.7-1 0.7-1.7h-1.2c-0.1 0.4-0.2 0.8-0.4 1s-0.5 0.3-0.9 0.3c-0.5 0-0.8-0.2-1.1-0.5 c-0.2-0.3-0.3-0.8-0.3-1.5v-0.4h3.9v-1.1c0-1-0.2-1.7-0.6-2.2C127.5 20.9 126.8 20.6 125.9 20.6z M127.3 23.7h-2.7 c0-0.8 0.1-1.3 0.4-1.7c0.2-0.4 0.6-0.5 1.1-0.5c0.4 0 0.7 0.1 1 0.4s0.3 0.7 0.3 1.2V23.7z"/><path fill="#747476" d="M133.5 26.5c-0.2 0.3-0.6 0.4-0.9 0.4c-0.5 0-0.9-0.2-1.1-0.6c-0.2-0.4-0.3-1.1-0.3-2c0-1 0.1-1.7 0.3-2.1 c0.2-0.4 0.6-0.6 1.1-0.6c0.4 0 0.7 0.1 0.9 0.3c0.2 0.2 0.3 0.5 0.3 1h1.2v-0.2c0-0.7-0.2-1.2-0.7-1.6s-1.1-0.6-1.8-0.6 c-0.9 0-1.6 0.3-2 0.9c-0.4 0.6-0.6 1.5-0.6 2.8s0.2 2.2 0.6 2.8s1.1 0.9 2 0.9c0.8 0 1.4-0.2 1.8-0.7c0.4-0.4 0.7-1.1 0.7-1.9h-1.2 C133.8 25.9 133.7 26.3 133.5 26.5z"/><path fill="#747476" d="M139.1 20.6c-0.9 0-1.6 0.3-2 0.9c-0.4 0.6-0.6 1.5-0.6 2.8c0 1.3 0.2 2.2 0.6 2.8s1.1 0.9 2 0.9 c0.9 0 1.6-0.3 2-0.9s0.6-1.5 0.6-2.8c0-1.3-0.2-2.2-0.6-2.8C140.7 20.9 140.1 20.6 139.1 20.6z M140.2 26.3 c-0.2 0.4-0.6 0.6-1.1 0.6c-0.5 0-0.9-0.2-1.1-0.6c-0.2-0.4-0.3-1.1-0.3-2.1c0-0.9 0.1-1.6 0.3-2c0.2-0.4 0.6-0.6 1.1-0.6 c0.5 0 0.9 0.2 1.1 0.6c0.2 0.4 0.3 1.1 0.3 2.1C140.5 25.3 140.4 25.9 140.2 26.3z"/><rect x="143.4" y="17.7" fill="#747476" width="1.2" height="10.1"/><path fill="#747476" d="M148.9 20.6c-0.9 0-1.6 0.3-2 0.9c-0.4 0.6-0.6 1.5-0.6 2.8c0 1.3 0.2 2.3 0.6 2.9c0.4 0.6 1.1 0.9 2 0.9 c0.8 0 1.4-0.2 1.8-0.6c0.4-0.4 0.7-1 0.7-1.7h-1.2c-0.1 0.4-0.2 0.8-0.4 1s-0.5 0.3-0.9 0.3c-0.5 0-0.8-0.2-1.1-0.5 c-0.2-0.3-0.3-0.8-0.3-1.5v-0.4h3.9v-1.1c0-1-0.2-1.7-0.6-2.2C150.4 20.9 149.8 20.6 148.9 20.6z M150.3 23.7h-2.7 c0-0.8 0.1-1.3 0.4-1.7c0.2-0.4 0.6-0.5 1.1-0.5c0.4 0 0.7 0.1 1 0.4s0.3 0.7 0.3 1.2V23.7z"/><path fill="#747476" d="M161.7 26.6v-8.8h-1.2v3.8c-0.2-0.3-0.4-0.6-0.7-0.7c-0.3-0.2-0.6-0.2-1-0.2c-0.8 0-1.4 0.3-1.7 0.9 s-0.6 1.6-0.6 2.9c0 1.2 0.2 2.1 0.6 2.7c0.4 0.6 1 0.9 1.8 0.9c0.4 0 0.7-0.1 0.9-0.2s0.5-0.4 0.7-0.6l0.1 0.7h1.2 c0-0.1 0-0.3 0-0.5C161.7 27.2 161.7 26.9 161.7 26.6z M160.2 26.4c-0.2 0.4-0.6 0.6-1 0.6c-0.5 0-0.9-0.2-1.1-0.6s-0.3-1.1-0.3-2.2 c0-0.9 0.1-1.6 0.3-2c0.2-0.4 0.6-0.7 1-0.7c0.5 0 0.9 0.2 1.1 0.6s0.3 1.1 0.3 2.1C160.5 25.3 160.4 26 160.2 26.4z"/><path fill="#747476" d="M166 20.6c-0.9 0-1.6 0.3-2 0.9c-0.4 0.6-0.6 1.5-0.6 2.8c0 1.3 0.2 2.3 0.6 2.9c0.4 0.6 1.1 0.9 2 0.9 c0.8 0 1.4-0.2 1.8-0.6c0.4-0.4 0.7-1 0.7-1.7h-1.2c-0.1 0.4-0.2 0.8-0.4 1S166.4 27 166 27c-0.5 0-0.8-0.2-1.1-0.5 c-0.2-0.3-0.3-0.8-0.3-1.5v-0.4h3.9v-1.1c0-1-0.2-1.7-0.6-2.2C167.5 20.9 166.9 20.6 166 20.6z M167.3 23.7h-2.7 c0-0.8 0.1-1.3 0.4-1.7c0.2-0.4 0.6-0.5 1.1-0.5c0.4 0 0.7 0.1 1 0.4s0.3 0.7 0.3 1.2V23.7z"/><path fill="#747476" d="M175.4 18.8l-1.2 0.6v1.4h-1.1v0.9h1.1v4.6c0 0.6 0.1 1 0.4 1.2c0.2 0.2 0.7 0.3 1.3 0.3c0.1 0 0.3 0 0.5 0 s0.3-0.1 0.5-0.1l0-0.9h0c-0.3 0-0.4 0-0.5 0c-0.3 0-0.5-0.1-0.6-0.2s-0.2-0.4-0.2-0.8v-4.2h1.4v-0.9h-1.4V18.8z"/><path fill="#747476" d="M181 20.6c-0.4 0-0.8 0.1-1.1 0.3s-0.5 0.5-0.6 0.8l-0.1-0.9h-1.2c0 0.1 0 0.2 0 0.4 c0.1 0.5 0.1 0.8 0.1 0.8v5.9h1.2v-4.3c0-0.6 0.1-1.1 0.4-1.3s0.7-0.4 1.3-0.4c0 0 0.1 0 0.1 0c0.1 0 0.1 0 0.2 0v-1.2 c0 0-0.1 0-0.1 0C181.1 20.6 181 20.6 181 20.6z"/><path fill="#747476" d="M187.1 25.9v-3.3c0-0.7-0.2-1.2-0.6-1.5s-1-0.5-1.8-0.5c-0.8 0-1.4 0.2-1.9 0.5c-0.4 0.3-0.6 0.8-0.6 1.4 v0.1h1.3v-0.1c0-0.4 0.1-0.6 0.3-0.8c0.2-0.2 0.5-0.3 1-0.3c0.4 0 0.7 0.1 0.8 0.3c0.2 0.2 0.2 0.6 0.2 1.1v0.3h-0.7 c-1 0-1.8 0.2-2.3 0.6c-0.5 0.4-0.8 1-0.8 1.8c0 0.6 0.2 1.2 0.6 1.6c0.4 0.4 0.9 0.6 1.5 0.6c0.3 0 0.7-0.1 1-0.2s0.6-0.4 0.8-0.7 l0.1 0.9h1.2c0-0.3-0.1-0.6-0.1-0.9S187.1 26.3 187.1 25.9z M185.9 24.7c0 0.7-0.1 1.2-0.4 1.6c-0.3 0.4-0.6 0.6-1.1 0.6 c-0.3 0-0.6-0.1-0.8-0.3c-0.2-0.2-0.3-0.5-0.3-0.9c0-0.5 0.2-0.9 0.6-1.1s1.1-0.3 2-0.3V24.7z"/><path fill="#747476" d="M191.8 24.8c0 0 0 0.1-0.1 0.2c-0.2 0.6-0.4 1.3-0.5 1.9c-0.1-0.4-0.1-0.7-0.2-1.1c-0.1-0.4-0.2-0.7-0.2-1 l-1.1-4h-1.4l2.2 7h1.5l2.2-7h-1.3L191.8 24.8z"/><path fill="#747476" d="M200.1 25.9v-3.3c0-0.7-0.2-1.2-0.6-1.5s-1-0.5-1.8-0.5c-0.8 0-1.4 0.2-1.9 0.5c-0.4 0.3-0.6 0.8-0.6 1.4 v0.1h1.3v-0.1c0-0.4 0.1-0.6 0.3-0.8c0.2-0.2 0.5-0.3 1-0.3c0.4 0 0.7 0.1 0.8 0.3c0.2 0.2 0.2 0.6 0.2 1.1v0.3h-0.7 c-1 0-1.8 0.2-2.3 0.6c-0.5 0.4-0.8 1-0.8 1.8c0 0.6 0.2 1.2 0.6 1.6s0.9 0.6 1.5 0.6c0.3 0 0.7-0.1 1-0.2s0.6-0.4 0.8-0.7l0.1 0.9 h1.2c0-0.3-0.1-0.6-0.1-0.9S200.1 26.3 200.1 25.9z M198.9 24.7c0 0.7-0.1 1.2-0.4 1.6c-0.3 0.4-0.6 0.6-1.1 0.6 c-0.3 0-0.6-0.1-0.8-0.3s-0.3-0.5-0.3-0.9c0-0.5 0.2-0.9 0.6-1.1s1.1-0.3 2-0.3V24.7z"/><rect x="202.1" y="17.7" fill="#747476" width="1.2" height="1.3"/><rect x="202.1" y="20.8" fill="#747476" width="1.2" height="7"/><rect x="205.1" y="17.7" fill="#747476" width="1.2" height="10.1"/><path fill="#747476" d="M214.8 23.8l-1.2-0.6c-0.3-0.1-0.4-0.3-0.6-0.4c-0.1-0.1-0.2-0.3-0.2-0.5c0-0.3 0.1-0.5 0.3-0.6 s0.5-0.2 0.8-0.2c0.4 0 0.6 0.1 0.8 0.3c0.2 0.2 0.3 0.5 0.3 0.8h1.3v-0.1c0-0.6-0.2-1-0.6-1.4c-0.4-0.3-1-0.5-1.7-0.5 c-0.7 0-1.3 0.2-1.8 0.6s-0.7 0.9-0.7 1.5c0 0.4 0.1 0.7 0.3 0.9c0.2 0.2 0.5 0.5 1 0.7l1.3 0.7c0.4 0.2 0.6 0.4 0.8 0.5 c0.2 0.2 0.2 0.4 0.2 0.6c0 0.3-0.1 0.5-0.3 0.7s-0.5 0.3-0.8 0.3c-0.4 0-0.7-0.1-0.9-0.3c-0.2-0.2-0.3-0.5-0.3-1h-1.3 c0 0.8 0.2 1.3 0.6 1.7c0.4 0.4 1 0.6 1.8 0.6c0.8 0 1.4-0.2 1.8-0.6c0.5-0.4 0.7-0.9 0.7-1.6c0-0.4-0.1-0.8-0.4-1.1 S215.5 24.1 214.8 23.8z"/><path fill="#747476" d="M220.6 20.6c-0.9 0-1.6 0.3-2 0.9c-0.4 0.6-0.6 1.5-0.6 2.8c0 1.3 0.2 2.2 0.6 2.8s1.1 0.9 2 0.9 c0.9 0 1.6-0.3 2-0.9s0.6-1.5 0.6-2.8c0-1.3-0.2-2.2-0.6-2.8C222.2 20.9 221.5 20.6 220.6 20.6z M221.6 26.3 c-0.2 0.4-0.6 0.6-1.1 0.6c-0.5 0-0.9-0.2-1.1-0.6c-0.2-0.4-0.3-1.1-0.3-2.1c0-0.9 0.1-1.6 0.3-2c0.2-0.4 0.6-0.6 1.1-0.6 c0.5 0 0.9 0.2 1.1 0.6c0.2 0.4 0.3 1.1 0.3 2.1C222 25.3 221.8 25.9 221.6 26.3z"/><path fill="#747476" d="M228.3 26.5c-0.2 0.3-0.6 0.4-0.9 0.4c-0.5 0-0.9-0.2-1.1-0.6c-0.2-0.4-0.3-1.1-0.3-2c0-1 0.1-1.7 0.3-2.1 c0.2-0.4 0.6-0.6 1.1-0.6c0.4 0 0.7 0.1 0.9 0.3c0.2 0.2 0.3 0.5 0.3 1h1.2v-0.2c0-0.7-0.2-1.2-0.7-1.6s-1.1-0.6-1.8-0.6 c-0.9 0-1.6 0.3-2 0.9c-0.4 0.6-0.6 1.5-0.6 2.8s0.2 2.2 0.6 2.8c0.4 0.6 1.1 0.9 2 0.9c0.8 0 1.4-0.2 1.8-0.7 c0.4-0.4 0.7-1.1 0.7-1.9h-1.2C228.6 25.9 228.5 26.3 228.3 26.5z"/><rect x="231.6" y="17.7" fill="#747476" width="1.2" height="1.3"/><rect x="231.6" y="20.8" fill="#747476" width="1.2" height="7"/><path fill="#747476" d="M239.4 25.9v-3.3c0-0.7-0.2-1.2-0.6-1.5s-1-0.5-1.8-0.5c-0.8 0-1.4 0.2-1.9 0.5c-0.4 0.3-0.6 0.8-0.6 1.4 v0.1h1.3v-0.1c0-0.4 0.1-0.6 0.3-0.8c0.2-0.2 0.5-0.3 1-0.3c0.4 0 0.7 0.1 0.8 0.3c0.2 0.2 0.2 0.6 0.2 1.1v0.3h-0.7 c-1 0-1.8 0.2-2.3 0.6c-0.5 0.4-0.8 1-0.8 1.8c0 0.6 0.2 1.2 0.6 1.6s0.9 0.6 1.5 0.6c0.3 0 0.7-0.1 1-0.2s0.6-0.4 0.8-0.7l0.1 0.9 h1.2c0-0.3-0.1-0.6-0.1-0.9S239.4 26.3 239.4 25.9z M238.2 24.7c0 0.7-0.1 1.2-0.4 1.6c-0.3 0.4-0.6 0.6-1.1 0.6 c-0.3 0-0.6-0.1-0.8-0.3s-0.3-0.5-0.3-0.9c0-0.5 0.2-0.9 0.6-1.1s1.1-0.3 2-0.3V24.7z"/><rect x="241.2" y="17.7" fill="#747476" width="1.2" height="10.1"/><path fill="#747476" d="M250.4 20.6c-0.9 0-1.6 0.3-2 0.9s-0.6 1.5-0.6 2.8c0 1.3 0.2 2.3 0.6 2.9c0.4 0.6 1.1 0.9 2 0.9 c0.8 0 1.4-0.2 1.8-0.6c0.4-0.4 0.7-1 0.7-1.7h-1.2c-0.1 0.4-0.2 0.8-0.4 1s-0.5 0.3-0.9 0.3c-0.5 0-0.8-0.2-1.1-0.5 c-0.2-0.3-0.3-0.8-0.3-1.5v-0.4h3.9v-1.1c0-1-0.2-1.7-0.6-2.2S251.2 20.6 250.4 20.6z M251.7 23.7H249c0-0.8 0.1-1.3 0.4-1.7 c0.2-0.4 0.6-0.5 1.1-0.5c0.4 0 0.7 0.1 1 0.4s0.3 0.7 0.3 1.2V23.7z"/><path fill="#747476" d="M256.1 18.8l-1.2 0.6v1.4h-1.1v0.9h1.1v4.6c0 0.6 0.1 1 0.4 1.2c0.2 0.2 0.7 0.3 1.3 0.3c0.1 0 0.3 0 0.5 0 s0.3-0.1 0.5-0.1l0-0.9h0c-0.3 0-0.4 0-0.5 0c-0.3 0-0.5-0.1-0.6-0.2s-0.2-0.4-0.2-0.8v-4.2h1.4v-0.9h-1.4V18.8z"/><path fill="#747476" d="M267.4 26.6v-8.8h-1.2v3.8c-0.2-0.3-0.4-0.6-0.7-0.7c-0.3-0.2-0.6-0.2-1-0.2c-0.8 0-1.4 0.3-1.7 0.9 c-0.4 0.6-0.6 1.6-0.6 2.9c0 1.2 0.2 2.1 0.6 2.7c0.4 0.6 1 0.9 1.8 0.9c0.4 0 0.7-0.1 0.9-0.2s0.5-0.4 0.7-0.6l0.1 0.7h1.2 c0-0.1 0-0.3 0-0.5C267.4 27.2 267.4 26.9 267.4 26.6z M265.9 26.4c-0.2 0.4-0.6 0.6-1 0.6c-0.5 0-0.9-0.2-1.1-0.6s-0.3-1.1-0.3-2.2 c0-0.9 0.1-1.6 0.3-2c0.2-0.4 0.6-0.7 1-0.7c0.5 0 0.9 0.2 1.1 0.6c0.2 0.4 0.3 1.1 0.3 2.1C266.2 25.3 266.1 26 265.9 26.4z"/><path fill="#747476" d="M271.7 20.6c-0.9 0-1.6 0.3-2 0.9s-0.6 1.5-0.6 2.8c0 1.3 0.2 2.3 0.6 2.9c0.4 0.6 1.1 0.9 2 0.9 c0.8 0 1.4-0.2 1.8-0.6c0.4-0.4 0.7-1 0.7-1.7H273c-0.1 0.4-0.2 0.8-0.4 1s-0.5 0.3-0.9 0.3c-0.5 0-0.8-0.2-1.1-0.5 c-0.2-0.3-0.3-0.8-0.3-1.5v-0.4h3.9v-1.1c0-1-0.2-1.7-0.6-2.2S272.6 20.6 271.7 20.6z M273 23.7h-2.7c0-0.8 0.1-1.3 0.4-1.7 c0.2-0.4 0.6-0.5 1.1-0.5c0.4 0 0.7 0.1 1 0.4s0.3 0.7 0.3 1.2V23.7z"/><rect x="279.5" y="17.7" fill="#747476" width="1.2" height="10.1"/><path fill="#747476" d="M287.2 25.9v-3.3c0-0.7-0.2-1.2-0.6-1.5s-1-0.5-1.8-0.5c-0.8 0-1.4 0.2-1.9 0.5c-0.4 0.3-0.6 0.8-0.6 1.4 v0.1h1.3v-0.1c0-0.4 0.1-0.6 0.3-0.8c0.2-0.2 0.5-0.3 1-0.3c0.4 0 0.7 0.1 0.8 0.3c0.2 0.2 0.2 0.6 0.2 1.1v0.3h-0.7 c-1 0-1.8 0.2-2.3 0.6c-0.5 0.4-0.8 1-0.8 1.8c0 0.6 0.2 1.2 0.6 1.6s0.9 0.6 1.5 0.6c0.3 0 0.7-0.1 1-0.2s0.6-0.4 0.8-0.7l0.1 0.9 h1.2c0-0.3-0.1-0.6-0.1-0.9S287.2 26.3 287.2 25.9z M286 24.7c0 0.7-0.1 1.2-0.4 1.6c-0.3 0.4-0.6 0.6-1.1 0.6 c-0.3 0-0.6-0.1-0.8-0.3s-0.3-0.5-0.3-0.9c0-0.5 0.2-0.9 0.6-1.1s1.1-0.3 2-0.3V24.7z"/><path fill="#747476" d="M295.7 23.8l-1.2-0.6c-0.3-0.1-0.4-0.3-0.6-0.4c-0.1-0.1-0.2-0.3-0.2-0.5c0-0.3 0.1-0.5 0.3-0.6 s0.5-0.2 0.8-0.2c0.4 0 0.6 0.1 0.8 0.3c0.2 0.2 0.3 0.5 0.3 0.8h1.3v-0.1c0-0.6-0.2-1-0.6-1.4c-0.4-0.3-1-0.5-1.7-0.5 c-0.7 0-1.3 0.2-1.8 0.6c-0.4 0.4-0.7 0.9-0.7 1.5c0 0.4 0.1 0.7 0.3 0.9s0.5 0.5 1 0.7l1.3 0.7c0.4 0.2 0.6 0.4 0.8 0.5 c0.2 0.2 0.2 0.4 0.2 0.6c0 0.3-0.1 0.5-0.3 0.7c-0.2 0.2-0.5 0.3-0.8 0.3c-0.4 0-0.7-0.1-0.9-0.3c-0.2-0.2-0.3-0.5-0.3-1h-1.3 c0 0.8 0.2 1.3 0.6 1.7c0.4 0.4 1 0.6 1.8 0.6c0.8 0 1.4-0.2 1.8-0.6s0.7-0.9 0.7-1.6c0-0.4-0.1-0.8-0.4-1.1 C296.8 24.5 296.3 24.1 295.7 23.8z"/><path fill="#747476" d="M303.7 25.9v-3.3c0-0.7-0.2-1.2-0.6-1.5s-1-0.5-1.8-0.5c-0.8 0-1.4 0.2-1.9 0.5c-0.4 0.3-0.6 0.8-0.6 1.4 v0.1h1.3v-0.1c0-0.4 0.1-0.6 0.3-0.8c0.2-0.2 0.5-0.3 1-0.3c0.4 0 0.7 0.1 0.8 0.3c0.2 0.2 0.2 0.6 0.2 1.1v0.3h-0.7 c-1 0-1.8 0.2-2.3 0.6c-0.5 0.4-0.8 1-0.8 1.8c0 0.6 0.2 1.2 0.6 1.6c0.4 0.4 0.9 0.6 1.5 0.6c0.3 0 0.7-0.1 1-0.2s0.6-0.4 0.8-0.7 l0.1 0.9h1.2c0-0.3-0.1-0.6-0.1-0.9S303.7 26.3 303.7 25.9z M302.5 24.7c0 0.7-0.1 1.2-0.4 1.6c-0.3 0.4-0.6 0.6-1.1 0.6 c-0.3 0-0.6-0.1-0.8-0.3c-0.2-0.2-0.3-0.5-0.3-0.9c0-0.5 0.2-0.9 0.6-1.1s1.1-0.3 2-0.3V24.7z"/><path fill="#747476" d="M308.6 20.6c-0.4 0-0.7 0.1-1 0.2c-0.3 0.2-0.6 0.4-0.8 0.7l-0.1-0.8h-1.2c0 0.2 0 0.4 0.1 0.6 c0 0.2 0 0.3 0 0.5v5.9h1.2v-4.1c0-0.8 0.1-1.3 0.3-1.7s0.6-0.5 1-0.5c0.4 0 0.7 0.1 0.9 0.4c0.2 0.3 0.3 0.7 0.3 1.4v4.5h1.2v-5.3 c0-0.6-0.2-1-0.5-1.4S309.2 20.6 308.6 20.6z"/><path fill="#747476" d="M313.9 18.8l-1.2 0.6v1.4h-1.1v0.9h1.1v4.6c0 0.6 0.1 1 0.4 1.2c0.2 0.2 0.7 0.3 1.3 0.3c0.1 0 0.3 0 0.5 0 s0.3-0.1 0.5-0.1l0-0.9h0c-0.3 0-0.4 0-0.5 0c-0.3 0-0.5-0.1-0.6-0.2s-0.2-0.4-0.2-0.8v-4.2h1.4v-0.9h-1.4V18.8z"/><path fill="#747476" d="M319 20.6c-0.9 0-1.6 0.3-2 0.9c-0.4 0.6-0.6 1.5-0.6 2.8c0 1.3 0.2 2.3 0.6 2.9s1.1 0.9 2 0.9 c0.8 0 1.4-0.2 1.8-0.6c0.4-0.4 0.7-1 0.7-1.7h-1.2c-0.1 0.4-0.2 0.8-0.4 1S319.4 27 319 27c-0.5 0-0.8-0.2-1.1-0.5 s-0.3-0.8-0.3-1.5v-0.4h3.9v-1.1c0-1-0.2-1.7-0.6-2.2C320.6 20.9 319.9 20.6 319 20.6z M320.4 23.7h-2.7c0-0.8 0.1-1.3 0.4-1.7 s0.6-0.5 1.1-0.5c0.4 0 0.7 0.1 1 0.4s0.3 0.7 0.3 1.2V23.7z"/><polygon fill="#747476" points="318.1,19.9 318.9,19.9 320.9,17.5 319.5,17.5"/><path fill="#747476" d="M327.7 22.2c-0.2 0-0.4 0.1-0.6 0.2c-0.1 0.2-0.2 0.3-0.2 0.6c0 0.2 0.1 0.4 0.2 0.6 c0.1 0.1 0.3 0.2 0.6 0.2c0.2 0 0.4-0.1 0.6-0.2c0.1-0.1 0.2-0.3 0.2-0.6c0-0.2-0.1-0.4-0.2-0.6C328.1 22.2 327.9 22.2 327.7 22.2z"/><path fill="#747476" d="M337.3 25.3c0 0.1-0.1 0.4-0.2 0.8c-0.1 0.3-0.1 0.5-0.1 0.7c-0.1-0.3-0.2-0.8-0.3-1.4c0-0.1 0-0.1 0-0.1 l-1.8-7.5h-1.5l2.9 10.1h1.6l2.9-10.1h-1.4L337.3 25.3z"/><path fill="#747476" d="M346.4 25.9v-3.3c0-0.7-0.2-1.2-0.6-1.5s-1-0.5-1.8-0.5c-0.8 0-1.4 0.2-1.9 0.5c-0.4 0.3-0.6 0.8-0.6 1.4 v0.1h1.3v-0.1c0-0.4 0.1-0.6 0.3-0.8c0.2-0.2 0.5-0.3 1-0.3c0.4 0 0.7 0.1 0.8 0.3c0.2 0.2 0.2 0.6 0.2 1.1v0.3h-0.7 c-1 0-1.8 0.2-2.3 0.6c-0.5 0.4-0.8 1-0.8 1.8c0 0.6 0.2 1.2 0.6 1.6s0.9 0.6 1.5 0.6c0.3 0 0.7-0.1 1-0.2s0.6-0.4 0.8-0.7l0.1 0.9 h1.2c0-0.3-0.1-0.6-0.1-0.9S346.4 26.3 346.4 25.9z M345.2 24.7c0 0.7-0.1 1.2-0.4 1.6c-0.3 0.4-0.6 0.6-1.1 0.6 c-0.3 0-0.6-0.1-0.8-0.3s-0.3-0.5-0.3-0.9c0-0.5 0.2-0.9 0.6-1.1s1.1-0.3 2-0.3V24.7z"/><path fill="#747476" d="M353.2 26.7v-5.9H352v4.1c0 0.8-0.1 1.3-0.3 1.7s-0.6 0.5-1 0.5c-0.4 0-0.7-0.1-0.9-0.4 c-0.2-0.3-0.3-0.7-0.3-1.4v-4.5h-1.2v5.3c0 0.6 0.2 1 0.5 1.4c0.3 0.3 0.8 0.5 1.4 0.5c0.4 0 0.7-0.1 1-0.2s0.6-0.4 0.8-0.8l0.1 0.8 h1.2c0-0.2 0-0.4 0-0.6C353.2 27 353.2 26.9 353.2 26.7z"/><path fill="#747476" d="M360 26.6v-8.8h-1.2v3.8c-0.2-0.3-0.4-0.6-0.7-0.7c-0.3-0.2-0.6-0.2-1-0.2c-0.8 0-1.4 0.3-1.7 0.9 c-0.4 0.6-0.6 1.6-0.6 2.9c0 1.2 0.2 2.1 0.6 2.7c0.4 0.6 1 0.9 1.8 0.9c0.4 0 0.7-0.1 0.9-0.2s0.5-0.4 0.7-0.6l0.1 0.7h1.2 c0-0.1 0-0.3 0-0.5C360 27.2 360 26.9 360 26.6z M358.5 26.4c-0.2 0.4-0.6 0.6-1 0.6c-0.5 0-0.9-0.2-1.1-0.6s-0.3-1.1-0.3-2.2 c0-0.9 0.1-1.6 0.3-2c0.2-0.4 0.6-0.7 1-0.7c0.5 0 0.9 0.2 1.1 0.6c0.2 0.4 0.3 1.1 0.3 2.1C358.8 25.3 358.7 26 358.5 26.4z"/></svg>